<svg id="Capa_1" enable-background="new 0 0 512 512" height="512" viewBox="0 0 512 512" width="512" xmlns="http://www.w3.org/2000/svg"><g><path d="m256 0c-98.195 0-178.083 79.937-178.083 178.192 0 34.085 9.157 70.81 27.216 109.151 14.263 30.28 34.1 61.679 58.962 93.324 15.764 20.065 31.44 37.577 44.982 51.718-20.981 7.914-33.489 21.01-33.489 35.9 0 24.921 34.57 43.714 80.413 43.714s80.413-18.793 80.413-43.714c0-14.852-12.468-27.936-33.381-35.857 13.516-14.075 29.148-31.497 44.867-51.47 24.865-31.593 44.706-62.983 58.969-93.299 18.059-38.381 27.215-75.211 27.215-109.468-.001-98.254-79.889-178.191-178.084-178.191zm60.413 468.286c0 9.669-23.534 23.714-60.413 23.714s-60.413-14.045-60.413-23.714c0-6.278 10.034-14.93 29.256-19.939 14.293 14.015 23.871 22.179 24.691 22.874 1.865 1.581 4.165 2.372 6.466 2.372 2.292 0 4.584-.785 6.446-2.354.822-.693 10.443-8.851 24.791-22.871 19.169 5.014 29.176 13.661 29.176 19.918zm16.006-99.997c-31.381 39.923-63.127 69.966-76.405 81.957-13.229-11.995-44.823-42.008-76.191-81.935-37.365-47.558-81.905-119.146-81.905-190.119-.001-87.227 70.915-158.192 158.082-158.192s158.083 70.965 158.083 158.192c0 71.25-44.409 142.703-81.664 190.097z"/><path d="m256 58.894c-68.226 0-123.73 55.538-123.73 123.804s55.505 123.804 123.73 123.804 123.73-55.538 123.73-123.804-55.504-123.804-123.73-123.804zm0 227.607c-57.197 0-103.73-46.566-103.73-103.804s46.533-103.803 103.73-103.803 103.73 46.566 103.73 103.804-46.533 103.803-103.73 103.803z"/><path d="m284.361 128.087c-11.918 0-21.797 6.669-28.288 12.692-6.429-6.028-16.282-12.692-28.437-12.692-21.368 0-39.021 17.094-40.189 38.917-.703 13.167 4.357 22.493 8.226 28.364 8.944 13.572 47.278 39.271 54.872 44.283 1.671 1.104 3.59 1.655 5.51 1.655 1.919 0 3.839-.552 5.51-1.654 7.566-4.996 45.77-30.609 54.769-44.294 3.865-5.88 8.922-15.217 8.218-28.355-1.168-21.822-18.822-38.916-40.191-38.916zm15.261 56.284c-4.458 6.778-26.519 23.284-43.567 34.894-17.113-11.645-39.25-28.179-43.681-34.901-3.827-5.808-5.263-10.528-4.955-16.292.59-11.02 9.659-19.984 20.218-19.984 9.078 0 17.558 9.59 20.034 13.249 1.827 2.752 4.894 4.424 8.196 4.469 3.335.054 6.415-1.545 8.314-4.245 2.002-2.846 11.295-13.473 20.18-13.473 10.56 0 19.63 8.965 20.22 19.985.308 5.749-1.129 10.472-4.959 16.298z"/></g></svg>