<svg id="Capa_1" enable-background="new 0 0 512 512" height="512" viewBox="0 0 512 512" width="512" xmlns="http://www.w3.org/2000/svg"><g><path d="m502 436.765h-35.747v-91.745c0-5.523-4.478-10-10-10h-177.702c-5.522 0-10 4.477-10 10v91.745h-39.314c9.404-15.384 14.439-33.11 14.439-51.519 0-36.988-20.637-70.73-53.101-87.718v-35.728c0-5.522-4.477-10-10-10h-25.864v-22.836c9.812-1.46 19.046-5.097 25.967-10.909 3.792-3.185 9.773-9.582 11.769-19.417 9.593 3.223 18.194 1.212 22.878-.496 22.612-8.253 40.04-38.404 35.861-62.043-.863-4.881-3.42-13.272-10.97-19.929 7.55-6.657 10.107-15.048 10.97-19.929 4.179-23.639-13.25-53.791-35.861-62.044-4.684-1.708-13.285-3.72-22.878-.496-1.996-9.835-7.977-16.232-11.769-19.417-18.487-15.525-53.446-15.525-71.935 0-3.792 3.186-9.773 9.582-11.769 19.417-9.591-3.221-18.193-1.211-22.876.499-22.612 8.252-40.041 38.404-35.861 62.043.862 4.881 3.419 13.271 10.97 19.929-7.55 6.657-10.108 15.048-10.97 19.929-4.179 23.639 13.249 53.79 35.861 62.043 4.684 1.708 13.284 3.72 22.878.496 1.996 9.835 7.977 16.231 11.769 19.417 6.924 5.814 16.155 9.451 25.967 10.911v22.834h-25.864c-5.523 0-10 4.478-10 10v35.728c-32.463 16.988-53.101 50.73-53.101 87.718 0 18.408 5.035 36.134 14.439 51.519h-50.186c-5.523 0-10 4.478-10 10v24.765c0 20.859 16.97 37.829 37.83 37.829h436.34c20.859 0 37.83-16.97 37.83-37.829v-24.765c0-5.525-4.478-10.002-10-10.002zm-380.507-260.544c.914-1.578 1.348-3.302 1.348-5.002.001-3.451-1.788-6.81-4.99-8.663-4.778-2.768-10.897-1.138-13.665 3.642-10.342 17.859-20.044 14.319-23.231 13.157-13.457-4.911-25.506-25.727-23.023-39.773 1.573-8.898 9.323-13.41 23.035-13.41 5.523 0 10-4.478 10-10s-4.477-10-10-10c-13.712 0-21.462-4.512-23.035-13.41-2.483-14.047 9.567-34.863 23.023-39.774 3.188-1.163 12.889-4.703 23.231 13.157 2.767 4.778 8.885 6.41 13.665 3.642 3.202-1.854 4.991-5.212 4.99-8.663 0-1.7-.434-3.424-1.348-5.002-10.295-17.777-2.46-24.358.114-26.52 11.013-9.248 35.197-9.248 46.21 0 2.575 2.162 10.409 8.742.114 26.52-.914 1.578-1.348 3.302-1.348 5.002-.001 3.452 1.789 6.81 4.99 8.663 4.779 2.768 10.897 1.138 13.665-3.642 10.341-17.86 20.041-14.32 23.23-13.157 13.457 4.911 25.507 25.728 23.023 39.774-1.573 8.898-9.323 13.41-23.035 13.41-5.523 0-10 4.478-10 10s4.477 10 10 10c13.712 0 21.462 4.512 23.035 13.41 2.483 14.046-9.566 34.862-23.023 39.773-3.188 1.163-12.888 4.703-23.23-13.157-2.768-4.778-8.886-6.411-13.665-3.642-3.202 1.854-4.991 5.211-4.99 8.663 0 1.7.434 3.424 1.348 5.002 10.295 17.777 2.46 24.357-.114 26.52-11.013 9.248-35.197 9.248-46.21 0-2.575-2.163-10.409-8.743-.114-26.52zm167.058 178.799h157.702v81.745h-157.702zm-222.804 30.226c0-31.285 18.502-59.661 47.136-72.29 3.625-1.599 5.965-5.188 5.965-9.149v-32.006h51.728v32.006c0 3.962 2.339 7.551 5.965 9.149 28.634 12.629 47.136 41.004 47.136 72.29 0 19.053-6.759 37.188-19.118 51.519h-119.694c-12.359-14.33-19.118-32.466-19.118-51.519zm426.253 86.284c0 9.831-7.999 17.829-17.83 17.829h-436.34c-9.831 0-17.83-7.998-17.83-17.829v-14.765h472z"/><path d="m185.497 116.171c0-22.438-18.296-40.692-40.786-40.692-22.489 0-40.785 18.255-40.785 40.692s18.296 40.692 40.785 40.692c22.49.001 40.786-18.254 40.786-40.692zm-61.571 0c0-11.41 9.324-20.692 20.785-20.692 11.462 0 20.786 9.282 20.786 20.692s-9.324 20.692-20.786 20.692c-11.461.001-20.785-9.282-20.785-20.692z"/><path d="m406.04 385.892h-77.276c-5.522 0-10 4.478-10 10 0 5.523 4.478 10 10 10h77.276c5.522 0 10-4.477 10-10s-4.477-10-10-10z"/></g></svg>