<svg id="Capa_1" enable-background="new 0 0 512 512" height="512" viewBox="0 0 512 512" width="512" xmlns="http://www.w3.org/2000/svg"><g><path d="m333.646 84.515c4.894-7.445 11.297-19.256 10.412-35.79-1.463-27.323-23.536-48.725-50.251-48.725-16.102 0-29.549 10.194-37.666 18.259-7.96-8.107-21.261-18.259-37.951-18.259-26.714 0-48.786 21.402-50.249 48.727-.884 16.569 5.523 28.366 10.421 35.799 11.812 17.922 66.055 54.028 72.202 58.086 1.671 1.104 3.59 1.655 5.51 1.655 1.919 0 3.839-.552 5.51-1.654 6.124-4.045 60.176-40.026 72.062-58.098zm-16.712-10.988c-6.676 10.15-38.784 33.78-60.861 48.711-22.158-14.978-54.377-38.653-61.01-48.718-5.457-8.282-7.595-15.379-7.149-23.728.879-16.427 14.461-29.792 30.276-29.792 16.397 0 29.37 18.984 29.481 19.149 1.821 2.743 4.884 4.403 8.176 4.457 3.317.085 6.408-1.527 8.318-4.211 3.842-5.394 16.653-19.395 29.642-19.395 15.816 0 29.4 13.365 30.279 29.794.446 8.33-1.693 15.429-7.152 23.733z"/><path d="m214.094 366.896c-1.115-.333-25.449-7.234-50.827 14.932v-30.362c30.088-4.807 53.154-30.941 53.154-62.362v-122.476c0-5.522-4.477-10-10-10h-106.308c-5.523 0-10 4.478-10 10v122.476c0 31.421 23.066 57.556 53.154 62.362v30.361c-25.381-22.167-49.716-15.264-50.872-14.918-11.456 3.483-20.126 13.151-23.79 26.524-4.177 15.237-3.147 31.874-1.549 43.147 2.491 17.546 11.727 29.982 25.384 34.135.434.13 4.444 1.273 10.694 1.272 9.674 0 24.711-2.738 40.132-16.204v36.217h-40.378c-5.523 0-10 4.478-10 10s4.477 10 10 10h100.755c5.523 0 10-4.478 10-10s-4.477-10-10-10h-40.377v-36.217c25.384 22.166 49.724 15.263 50.872 14.919 13.611-4.139 22.847-16.575 25.338-34.122 1.599-11.273 2.628-27.909-1.549-43.147-3.662-13.373-12.333-23.04-23.833-26.537zm-17.673-190.268v38.499h-86.308v-38.499zm-86.308 112.475v-53.976h86.308v53.976c0 23.795-19.359 43.153-43.154 43.153-23.795.001-43.154-19.358-43.154-43.153zm109.563 144.667c-.792 5.579-3.309 15.287-11.223 17.757-1.326.333-18.549 4.164-36.921-15.56-2.565-2.754-6.463-3.835-10.081-2.794-.728.209-1.485.315-2.251.315h-12.112c-.735 0-1.464-.098-2.167-.291-3.585-.985-7.425.099-9.963 2.818-18.316 19.626-35.477 15.861-36.867 15.514-7.931-2.503-10.441-12.189-11.231-17.758-1.885-13.29-1.517-25.738 1.036-35.053 1.06-3.868 3.796-10.638 10.187-12.635 1.346-.335 18.883-4.233 37.454 16.139 2.443 2.679 6.147 3.825 9.677 2.998.611-.144 1.242-.217 1.874-.217h12.112c.665 0 1.323.08 1.956.236 3.563.884 7.331-.256 9.805-2.975 18.546-20.379 36.07-16.535 37.484-16.184 6.412 2.023 9.139 8.776 10.197 12.637 0 .001 0 .001.001.002 2.55 9.314 2.918 21.762 1.033 35.051z"/><path d="m443.395 393.434c-3.663-13.373-12.335-23.042-23.835-26.538-1.115-.333-25.449-7.233-50.827 14.932v-30.362c30.089-4.807 53.154-30.941 53.154-62.362v-122.476c0-5.522-4.477-10-10-10h-106.308c-5.523 0-10 4.478-10 10v122.476c0 31.421 23.065 57.556 53.154 62.362v30.361c-25.379-22.167-49.717-15.264-50.872-14.918-11.456 3.483-20.126 13.151-23.79 26.524-4.177 15.237-3.147 31.874-1.549 43.147 2.491 17.546 11.727 29.982 25.384 34.135.434.13 4.444 1.273 10.694 1.272 9.674 0 24.711-2.738 40.132-16.204v36.217h-40.377c-5.523 0-10 4.478-10 10s4.477 10 10 10h100.755c5.523 0 10-4.478 10-10s-4.477-10-10-10h-40.378v-36.218c25.384 22.166 49.723 15.263 50.872 14.92 13.612-4.139 22.847-16.575 25.338-34.122 1.6-11.272 2.629-27.909-1.547-43.146zm-41.508-216.806v38.499h-86.308v-38.499zm-86.308 112.475v-53.976h86.308v53.976c0 23.795-19.359 43.153-43.154 43.153-23.795.001-43.154-19.358-43.154-43.153zm109.563 144.668c-.792 5.578-3.309 15.285-11.223 17.757-1.325.334-18.547 4.163-36.921-15.561-2.565-2.754-6.461-3.835-10.081-2.794-.728.209-1.485.315-2.251.315h-12.112c-.735 0-1.464-.098-2.167-.291-3.586-.985-7.425.099-9.963 2.818-18.317 19.626-35.478 15.861-36.867 15.514-7.931-2.503-10.441-12.189-11.232-17.758-1.885-13.29-1.517-25.738 1.036-35.053 1.064-3.885 3.82-10.698 10.274-12.661.177-.053 18.319-4.731 37.368 16.165 2.444 2.681 6.15 3.827 9.678 2.997.61-.143 1.24-.216 1.873-.216h12.112c.665 0 1.323.079 1.955.236 3.568.885 7.333-.256 9.806-2.975 18.547-20.379 36.07-16.535 37.484-16.184 6.411 2.023 9.139 8.776 10.197 12.637v.002c2.551 9.314 2.918 21.762 1.034 35.052z"/></g></svg>