<svg id="Capa_1" enable-background="new 0 0 512 512" height="512" viewBox="0 0 512 512" width="512" xmlns="http://www.w3.org/2000/svg"><g><path d="m502 33.116h-492c-5.523 0-10 4.478-10 10v52.439c0 5.522 4.477 10 10 10h21.663v118.893c0 3.405 1.732 6.576 4.598 8.415 1.638 1.052 3.516 1.585 5.403 1.585 1.415 0 2.836-.301 4.162-.908l45.88-21.008 45.879 21.008c3.099 1.421 6.7 1.162 9.565-.677s4.598-5.01 4.598-8.415v-118.893h94.252v18.718c-6.4-4.134-14.249-7.348-23.188-7.348-24.098 0-44.008 19.294-45.326 43.928-.795 14.906 4.953 25.493 9.347 32.159 10.284 15.604 54.885 45.499 63.722 51.333 1.671 1.104 3.59 1.655 5.51 1.655 1.919 0 3.839-.552 5.51-1.654 8.805-5.814 53.252-35.609 63.601-51.344 4.391-6.679 10.135-17.279 9.338-32.151-1.317-24.631-21.228-43.926-45.328-43.926-8.858 0-16.735 3.292-23.185 7.496v-18.866h94.252v118.893c0 3.405 1.732 6.576 4.598 8.415 2.865 1.84 6.47 2.094 9.565.677l45.879-21.008 45.88 21.008c1.327.608 2.747.908 4.162.908 1.888 0 3.766-.534 5.403-1.585 2.865-1.839 4.598-5.01 4.598-8.415v-118.893h21.662c5.522 0 10-4.478 10-10v-52.439c0-5.522-4.478-10-10-10zm-212.815 103.809c13.244 0 24.62 11.212 25.357 24.995.376 7.03-1.441 13.04-6.079 20.094-5.697 8.664-33.136 28.889-52.399 41.952-19.335-13.104-46.868-33.368-52.531-41.96-4.634-7.031-6.45-13.039-6.075-20.086.738-13.782 12.112-24.995 25.355-24.995 11.391 0 21.821 11.761 24.858 16.262 1.82 2.742 4.883 4.4 8.174 4.455 3.267.063 6.406-1.526 8.318-4.205 3.276-4.593 14.155-16.512 25.022-16.512zm-157.437 71.945-35.879-16.429c-2.643-1.211-5.684-1.211-8.326 0l-35.88 16.43v-103.316h80.085zm328.589.001-35.88-16.43c-1.321-.605-2.742-.908-4.163-.908s-2.842.303-4.163.908l-35.879 16.429v-103.315h80.085zm31.663-123.316h-472v-32.439h472z"/><path d="m502 266h-492c-5.523 0-10 4.478-10 10v52.439c0 5.522 4.477 10 10 10h21.663v118.893c0 3.405 1.732 6.576 4.598 8.415 2.865 1.84 6.469 2.095 9.565.677l45.88-21.008 45.879 21.008c1.327.608 2.747.908 4.162.908 1.888 0 3.766-.534 5.403-1.585 2.865-1.839 4.598-5.01 4.598-8.415v-118.893h94.252v18.718c-6.4-4.134-14.249-7.348-23.188-7.348-24.098 0-44.008 19.294-45.326 43.928-.795 14.906 4.953 25.492 9.347 32.159 10.284 15.604 54.885 45.499 63.722 51.333 1.671 1.104 3.59 1.655 5.51 1.655 1.919 0 3.839-.552 5.51-1.654 8.805-5.814 53.252-35.609 63.601-51.344 4.391-6.679 10.135-17.279 9.338-32.151-1.317-24.631-21.228-43.926-45.328-43.926-8.858 0-16.735 3.292-23.185 7.496v-18.866h94.252v118.893c0 3.405 1.732 6.576 4.598 8.415 1.638 1.052 3.516 1.585 5.403 1.585 1.415 0 2.836-.301 4.162-.908l45.879-21.008 45.88 21.008c3.099 1.421 6.701 1.162 9.565-.677 2.865-1.839 4.598-5.01 4.598-8.415v-118.893h21.662c5.522 0 10-4.478 10-10v-52.439c0-5.522-4.478-10-10-10zm-212.815 103.809c13.244 0 24.62 11.212 25.357 24.995.376 7.03-1.441 13.04-6.079 20.094-5.697 8.664-33.136 28.889-52.399 41.952-19.335-13.104-46.868-33.368-52.531-41.96-4.634-7.031-6.45-13.039-6.075-20.086.738-13.782 12.112-24.995 25.355-24.995 11.391 0 21.821 11.761 24.858 16.262 1.82 2.742 4.883 4.4 8.174 4.455 3.308.049 6.407-1.525 8.318-4.205 3.276-4.593 14.155-16.512 25.022-16.512zm-157.437 71.945-35.879-16.429c-2.643-1.211-5.684-1.211-8.326 0l-35.88 16.43v-103.316h80.085zm328.589.001-35.88-16.43c-1.321-.605-2.742-.908-4.163-.908s-2.842.303-4.163.908l-35.879 16.429v-103.315h80.085zm31.663-123.316h-472v-32.439h472z"/></g></svg>