<svg id="Capa_1" enable-background="new 0 0 512 512" height="512" viewBox="0 0 512 512" width="512" xmlns="http://www.w3.org/2000/svg"><path d="m476.146 297.363c0-23.199-13.023-43.677-32.952-53.703 5.452-8.916 8.597-19.39 8.597-30.584 0-32.421-26.377-58.797-58.798-58.797h-1.39c1.162-4.147 1.757-8.468 1.757-12.882 0-26.219-21.33-47.549-47.55-47.549h-59.957c12.367-9.094 25.554-19.756 30.372-27.026 3.869-5.842 8.93-15.119 8.225-28.182-1.167-21.667-18.798-38.64-40.137-38.64-11.894 0-21.759 6.617-28.24 12.589-6.418-5.978-16.258-12.589-28.388-12.589-21.338 0-38.969 16.973-40.137 38.642-.704 13.093 4.361 22.359 8.233 28.191 4.796 7.222 18.039 17.901 30.454 27.016h-60.048c-26.219 0-47.55 21.33-47.55 47.549 0 4.408.596 8.731 1.76 12.882h-1.392c-32.421 0-58.798 26.377-58.798 58.798 0 11.196 3.146 21.672 8.6 30.589-19.92 10.039-32.955 30.544-32.955 53.697 0 24.448 14.66 45.536 35.65 54.938l43.304 152.432c1.222 4.301 5.149 7.268 9.619 7.268h263.146c4.47 0 8.397-2.967 9.619-7.268l43.304-152.432c20.993-9.402 35.652-30.491 35.652-54.939zm-263.703-241.593c-3.803-5.728-5.229-10.379-4.924-16.053.586-10.872 9.633-19.717 20.166-19.717 9.072 0 17.535 9.493 20.005 13.114 1.822 2.724 4.874 4.366 8.15 4.423 3.285.055 6.384-1.51 8.299-4.169 2.498-3.468 11.568-13.368 20.174-13.368 10.535 0 19.582 8.845 20.169 19.718.305 5.66-1.123 10.313-4.928 16.06-4.447 6.711-26.48 23.069-43.499 34.57-17.084-11.536-39.192-27.922-43.612-34.578zm-73.805 85.628c0-15.191 12.359-27.549 27.55-27.549h179.624c15.191 0 27.55 12.358 27.55 27.549 0 4.555-1.092 8.94-3.186 12.882h-228.35c-2.095-3.945-3.188-8.333-3.188-12.882zm-19.632 32.881h273.988c21.393 0 38.798 17.404 38.798 38.798 0 21.393-17.405 38.797-38.798 38.797h-273.988c-21.393 0-38.798-17.404-38.798-38.798 0-21.392 17.405-38.797 38.798-38.797zm-25.228 183.243h86.65l19.454 134.478h-67.901zm126.312 134.478-19.455-134.478h110.729l-19.454 134.478zm198.132-134.478-38.203 134.478h-67.901l19.455-134.478zm-2.233-20h-319.978c-22.143 0-40.158-18.015-40.158-40.158 0-17.322 10.92-32.421 26.989-37.956 9.981 7.808 22.538 12.466 36.164 12.466h273.988c13.626 0 26.183-4.659 36.165-12.467 16.078 5.53 26.988 20.601 26.988 37.957-.001 22.143-18.015 40.158-40.158 40.158z"/></svg>