<svg id="Capa_1" enable-background="new 0 0 512 512" height="512" viewBox="0 0 512 512" width="512" xmlns="http://www.w3.org/2000/svg"><g><path d="m400.133 150.749c9.595-14.598 20.406-35.104 18.838-64.352v.001c-1.231-23.015-10.976-44.626-27.438-60.854-16.713-16.472-38.534-25.544-61.447-25.544-33.412 0-60.783 25.384-73.907 40.193-12.757-14.899-39.53-40.193-74.263-40.193-22.911 0-44.731 9.072-61.442 25.544-16.462 16.228-26.207 37.839-27.438 60.855-1.221 22.875 4.593 42.725 18.85 64.36 13.578 20.605 66.584 79.443 103.869 107.117v244.124c0 5.522 4.477 10 10 10h60.917c5.522 0 10-4.478 10-10v-17.556h44.765c5.522 0 10-4.478 10-10v-44.982c0-5.522-4.478-10-10-10h-20.021v-20.881h20.021c5.522 0 10-4.478 10-10v-44.981c0-5.523-4.478-10-10-10h-44.765v-75.822c37.575-27.877 89.513-85.82 103.461-107.029zm-113.462 202.851h44.765v24.981h-20.021c-5.522 0-10 4.478-10 10v40.881c0 5.522 4.478 10 10 10h20.021v24.982h-44.765c-5.523 0-10 4.478-10 10v17.556h-40.917v-239.239c0-3.266-1.595-6.326-4.271-8.196-34.317-23.985-89.317-84.203-102.897-104.81-11.752-17.834-16.557-33.961-15.579-52.289 1.991-37.2 32.904-67.466 68.909-67.466 37.379 0 65.492 41.41 65.763 41.815 1.826 2.752 4.894 4.424 8.196 4.469.046.001.091.001.136.001 3.252 0 6.305-1.582 8.179-4.246.295-.42 29.993-42.039 65.896-42.039 36.008 0 66.923 30.266 68.914 67.466v.001c.993 18.53-3.666 34.17-15.579 52.295-13.585 20.657-68.399 80.859-102.482 104.706-2.675 1.871-4.268 4.93-4.268 8.193v90.939c0 5.522 4.477 10 10 10z"/><path d="m325.512 151.337c4.41-6.71 10.181-17.358 9.38-32.296-1.325-24.736-21.321-44.113-45.522-44.113-14.224 0-25.933 8.454-33.285 15.594-7.265-7.143-18.928-15.594-33.45-15.594-24.201 0-44.196 19.377-45.52 44.115-.8 14.971 4.975 25.606 9.389 32.305 10.213 15.496 57.689 56.26 63.069 60.856 1.87 1.599 4.184 2.397 6.496 2.397 2.315 0 4.629-.8 6.499-2.4 5.36-4.584 52.666-45.236 62.944-60.864zm-69.444 40.057c-19.651-17.104-47.023-42.189-52.864-51.051-4.667-7.083-6.497-13.134-6.118-20.232.743-13.886 12.204-25.183 25.549-25.183 11.478 0 21.981 11.843 25.04 16.376 1.826 2.751 4.894 4.424 8.196 4.469.045.001.091.001.136.001 3.252 0 6.304-1.582 8.179-4.245 3.03-4.307 14.161-16.601 25.185-16.601 13.345 0 24.808 11.297 25.552 25.184.379 7.081-1.452 13.135-6.12 20.238-5.942 9.031-32.717 33.621-52.735 51.044z"/></g></svg>