<svg id="Capa_1" enable-background="new 0 0 512 512" height="512" viewBox="0 0 512 512" width="512" xmlns="http://www.w3.org/2000/svg"><g><path d="m488.759 87.203h-415.575c-12.815 0-23.242 10.427-23.242 23.242v34.841h-26.7c-12.816 0-23.242 10.427-23.242 23.242v233.026c0 12.815 10.426 23.242 23.241 23.242h415.575c12.815 0 23.242-10.427 23.242-23.242v-34.841h26.7c12.815 0 23.241-10.427 23.241-23.242v-233.026c.001-12.815-10.425-23.242-23.24-23.242zm-46.7 314.352c0 1.788-1.454 3.242-3.242 3.242h-415.576c-1.787 0-3.241-1.454-3.241-3.242v-233.027c0-1.788 1.454-3.242 3.241-3.242h415.575c1.788 0 3.242 1.454 3.242 3.242v233.027zm49.941-58.083c0 1.788-1.454 3.242-3.241 3.242h-26.7v-178.186c0-12.815-10.427-23.242-23.242-23.242h-368.876v-34.841c0-1.788 1.454-3.242 3.242-3.242h415.575c1.787 0 3.241 1.454 3.241 3.242v233.027z"/><path d="m415.893 223.425c-17.63 0-31.973-14.343-31.973-31.972 0-5.522-4.477-10-10-10h-285.781c-5.522 0-10 4.478-10 10 0 17.629-14.343 31.972-31.973 31.972-5.522 0-10 4.477-10 10v103.233c0 5.522 4.478 10 10 10 17.63 0 31.973 14.343 31.973 31.973 0 5.522 4.478 10 10 10h285.781c5.523 0 10-4.478 10-10 0-17.63 14.343-31.973 31.973-31.973 5.522 0 10-4.478 10-10v-103.233c0-5.523-4.478-10-10-10zm-10 104.199c-20.653 4.041-36.966 20.354-41.007 41.007h-267.713c-4.041-20.653-20.354-36.966-41.007-41.007v-85.165c20.653-4.041 36.966-20.354 41.007-41.006h267.713c4.041 20.652 20.354 36.965 41.007 41.006z"/><path d="m266.179 238.958c-9.947 0-18.26 5.194-23.973 10.219-5.641-5.046-13.931-10.219-24.213-10.219-18.951 0-34.607 15.147-35.643 34.484-.621 11.63 3.83 19.839 7.233 25.003 7.761 11.775 40.546 33.759 47.04 38.046 1.671 1.103 3.59 1.655 5.51 1.655 1.919 0 3.839-.552 5.51-1.654 6.471-4.272 39.146-26.186 46.952-38.057 3.4-5.172 7.85-13.39 7.227-24.994-1.035-19.336-16.691-34.483-35.643-34.483zm11.706 48.49c-3.607 5.485-21.511 18.907-35.752 28.647-14.297-9.773-32.268-23.222-35.85-28.656-3.057-4.638-4.204-8.385-3.962-12.93.459-8.575 7.489-15.552 15.672-15.552 7.033 0 13.785 7.67 15.764 10.582 1.817 2.738 4.879 4.39 8.165 4.449 3.27.047 6.404-1.519 8.32-4.189 2.017-2.813 9.273-10.842 15.937-10.842 8.183 0 15.214 6.977 15.673 15.553.243 4.535-.907 8.283-3.967 12.938z"/><path d="m334.71 285.042c0 5.523 4.478 10 10 10h39.859c5.522 0 10-4.477 10-10 0-5.522-4.478-10-10-10h-39.859c-5.522 0-10 4.478-10 10z"/><path d="m139.463 275.042h-39.859c-5.522 0-10 4.478-10 10 0 5.523 4.478 10 10 10h39.859c5.522 0 10-4.477 10-10 0-5.522-4.478-10-10-10z"/></g></svg>