<svg id="Capa_1" enable-background="new 0 0 512 512" height="512" viewBox="0 0 512 512" width="512" xmlns="http://www.w3.org/2000/svg"><g><path d="m389.52 271.808c-1.289-24.071-20.749-42.927-44.304-42.927-13.693 0-24.983 8.038-32.143 14.926-2.5-2.434-5.521-5.011-8.999-7.327 4.179-9.021 5.902-18.041 5.378-27.823-.733-13.693-6.53-26.551-16.323-36.203-9.976-9.833-23.018-15.248-36.724-15.248-17.323 0-31.756 11.206-40.288 19.815-8.358-8.654-22.62-19.815-40.579-19.815-13.705 0-26.747 5.415-36.722 15.248-9.792 9.652-15.589 22.51-16.322 36.205-.935 17.519 5.848 30 11.031 37.865 12.556 19.051 70.457 57.592 77.018 61.923 1.671 1.104 3.59 1.655 5.51 1.655 1.919 0 3.839-.552 5.51-1.654.439-.29 8.544-5.648 19.444-13.331 1.475 3.162 3.107 5.855 4.583 8.095 10.017 15.198 53.368 44.257 61.956 49.927 1.671 1.103 3.59 1.655 5.51 1.655 1.919 0 3.839-.552 5.51-1.654 8.558-5.65 51.759-34.612 61.838-49.938 4.287-6.52 9.894-16.869 9.116-31.394zm-153.052.001c-.037.689-.059 1.368-.068 2.037-8.186 5.889-15.595 10.985-20.363 14.221-23.756-16.037-58.626-41.646-65.812-52.548-5.923-8.988-8.244-16.702-7.759-25.793.96-17.932 15.796-32.52 33.073-32.52 17.915 0 31.983 20.606 32.107 20.79 1.826 2.752 4.894 4.424 8.196 4.469 3.28.053 6.414-1.544 8.314-4.244.148-.21 15.262-21.015 32.25-21.015 17.278 0 32.115 14.588 33.075 32.52.372 6.94-.866 12.994-4.074 19.45-1.509-.193-3.056-.296-4.638-.296-23.554.001-43.013 18.856-44.301 42.929zm127.226 20.405c-5.494 8.354-31.961 27.871-50.638 40.545-18.745-12.713-45.306-32.268-50.766-40.552-4.463-6.773-6.213-12.555-5.851-19.331.708-13.23 11.622-23.995 24.33-23.995 10.929 0 20.97 11.328 23.896 15.661 1.826 2.751 4.893 4.424 8.195 4.469 3.324.036 6.414-1.545 8.314-4.244 2.9-4.121 13.542-15.886 24.042-15.886 12.708 0 23.624 10.765 24.332 23.996.363 6.76-1.389 12.543-5.854 19.337z"/><path d="m473.596 50.688h-435.192c-21.176 0-38.404 17.227-38.404 38.403v333.818c0 21.176 17.228 38.403 38.404 38.403h435.192c21.176 0 38.404-17.228 38.404-38.403v-333.818c0-21.176-17.228-38.403-38.404-38.403zm-400.022 336.885v-263.146h364.852v263.146zm384.852-263.146h33.574v263.146h-33.574zm-438.426-35.336c0-10.147 8.256-18.403 18.404-18.403h435.192c10.148 0 18.404 8.256 18.404 18.403v15.336h-472zm0 35.336h33.574v263.146h-33.574zm472 298.482c0 10.147-8.256 18.403-18.404 18.403h-435.192c-10.148 0-18.404-8.256-18.404-18.403v-15.336h472z"/></g></svg>