<svg id="Capa_1" enable-background="new 0 0 512 512" height="512" viewBox="0 0 512 512" width="512" xmlns="http://www.w3.org/2000/svg"><g><path d="m250.586 199.696c1.671 1.104 3.59 1.655 5.51 1.655 1.919 0 3.839-.552 5.51-1.654 7.892-5.211 77.543-51.57 92.634-74.517 6.636-10.096 14.112-24.293 13.021-44.637-.859-16.079-7.667-31.176-19.167-42.511-11.699-11.532-26.988-17.883-43.051-17.883-21.367 0-39.065 14.644-48.889 24.969-9.597-10.382-27.027-24.969-49.201-24.969-16.061 0-31.35 6.351-43.049 17.883-11.499 11.335-18.306 26.432-19.166 42.512-1.101 20.622 6.909 35.355 13.031 44.646 14.997 22.754 84.896 69.277 92.817 74.506zm-85.877-118.084c1.225-22.862 20.175-41.462 42.244-41.462 22.894 0 40.557 25.929 40.719 26.17 1.827 2.751 4.893 4.424 8.196 4.469.045.001.091.001.136.001 3.252 0 6.304-1.582 8.178-4.245.187-.264 19.18-26.395 40.861-26.395 22.072 0 41.023 18.6 42.247 41.463.615 11.489-2.305 21.232-9.763 32.579-10.012 15.225-57.898 49.265-81.432 65.135-23.615-15.92-71.683-50.055-81.627-65.142-7.454-11.314-10.373-21.056-9.759-32.573z"/><path d="m502.085 404.304c-2.825-3.927-6.165-7.179-9.958-9.726v-67.478c0-34.724-13.828-66.231-38.938-88.72-24.184-21.659-57.084-33.588-92.64-33.588s-68.456 11.929-92.641 33.588c-18.681 16.731-31.118 38.455-36.261 62.781-.056-9.263-.938-19.008-2.646-29.202-1.798-10.726-4.202-19.793-5.902-25.51-3.563-11.977-4.41-12.702-6.267-14.289-2.104-1.801-4.861-2.651-7.618-2.337-2.753.311-5.255 1.75-6.907 3.974-.384.518-2.308 1.337-7.052 1.172-5.979-.22-13.741-1.882-21.958-3.642-21.297-4.559-49.762-10.655-64.853 8.498-34.598-6.372-60.174-1.001-76.09 15.998-21.484 22.946-17.885 59.98-14.516 77.833-10.462 4.353-17.838 14.679-17.838 26.695 0 13.215 8.92 24.386 21.059 27.814 4.449 44.065 29.479 73.946 71.426 85.28l-.384 7.607c-.278 5.516 3.968 10.213 9.483 10.491.172.009.342.013.513.013 5.291 0 9.709-4.152 9.979-9.496l.804-15.932c.249-4.945-3.158-9.329-8.012-10.307-40.455-8.151-62.731-34.768-64.42-76.974-.215-5.362-4.625-9.6-9.992-9.6h-1.543c-4.914 0-8.912-3.991-8.912-8.897s3.998-8.897 8.912-8.897h1.461c.498 0 .987-.037 1.465-.107 3.103.288 8.12.626 14.595.626 25.139-.001 72.229-5.086 114.478-37.898 5.793 14.077 14.232 27.729 32.02 35.33 1.031.441 2.13.705 3.248.781l18.235 1.245c.329.022.655.028.979.019.097.003.194.005.291.005h2.296c4.914 0 8.912 3.991 8.912 8.897 0 4.905-3.998 8.897-8.912 8.897h-2.379c-5.367 0-9.777 4.237-9.992 9.6-1.689 42.206-23.965 68.822-64.419 76.974-4.854.978-8.261 5.361-8.012 10.307l.818 16.226c.27 5.345 4.688 9.496 9.979 9.496.17 0 .341-.004.513-.013 5.516-.278 9.762-4.976 9.483-10.491l-.398-7.901c24.632-6.656 43.429-19.707 55.652-38.269-.084 1.532-.127 3.089-.127 4.671 0 28.675 23.376 52.004 52.108 52.004h82.432c5.523 0 10-4.478 10-10v-28.668c0-4.762-3.358-8.863-8.027-9.804-34.82-7.008-60.093-37.85-60.093-73.335v-18.735c24.449-.701 41.56-4.115 54.672-10.807 8.605-4.392 15.399-10.219 20.358-17.436 4.959 7.218 11.753 13.044 20.358 17.436 13.112 6.692 30.222 10.106 54.672 10.807v18.733c0 35.485-25.273 66.327-60.093 73.335-4.669.94-8.027 5.042-8.027 9.804v28.668c0 5.522 4.478 10 10 10h82.432c28.732 0 52.108-23.329 52.108-52.004.001-14.238-3.428-26.528-9.914-35.542zm-273.113-70.682c-.297-.123-.597-.24-.899-.353.321-1.3.621-2.613.899-3.94zm-54.174-39.683c-1.106-3.185-3.743-5.598-7.014-6.417-3.266-.819-6.732.061-9.211 2.348-22.918 21.131-51.208 34.51-84.087 39.765-15.963 2.551-29.218 2.462-36.698 2.066-3.344-16.217-5.733-46.293 9.167-62.206 11.79-12.592 33.351-15.532 64.089-8.736 4.497.986 9.098-1.226 11.134-5.356l.092-.183c6.077-12.063 22.491-9.548 46.84-4.334 12.974 2.778 25.481 5.457 35.438 3.396 4.621 16.21 11.371 48.125 3.458 76.664l-8.678-.592c-13.517-6.422-18.184-18.153-24.53-36.415zm48.612 105.202c.664-3.482 1.187-7.065 1.565-10.749 1.373-.342 2.708-.783 3.996-1.314v7.501c-1.98 1.33-3.836 2.852-5.561 4.562zm236.482 72.709h-72.432v-10.849c39.928-11.743 68.12-48.76 68.12-90.958v-65.626c0-5.522-4.478-10-10-10-5.523 0-10 4.478-10 10v26.881c-47.191-1.476-65.03-14.077-65.03-44.687 0-5.522-4.478-10-10-10s-10 4.478-10 10c0 30.609-17.84 43.211-65.03 44.687v-26.881c0-5.522-4.478-10-10-10s-10 4.478-10 10v65.626c0 42.198 28.192 79.215 68.12 90.958v10.849h-72.432c-17.705 0-32.108-14.356-32.108-32.004 0-11.923 3.04-31.903 23.355-32.004h.185c5.517-.019 9.976-4.501 9.967-10.017-.01-5.517-4.483-9.983-10-9.983h-.055c-1.146-.012-2.39-.051-3.579-.136v-60.605c0-59.281 46.926-102.308 111.578-102.308s111.577 43.026 111.577 102.308v60.605c-1.21.086-2.475.12-3.633.136-5.517 0-9.99 4.467-10 9.983-.009 5.516 4.45 9.998 9.967 10.017h.185c20.313.1 23.353 20.081 23.353 32.004 0 17.647-14.403 32.004-32.108 32.004z"/><path d="m376.685 407.098c-3.899-3.909-10.233-3.916-14.142-.017-1.1 1.096-2.887 1.096-3.986 0-3.91-3.899-10.24-3.895-14.142.017-3.901 3.909-3.893 10.241.017 14.142 4.443 4.434 10.281 6.65 16.118 6.65s11.675-2.217 16.118-6.65c3.91-3.901 3.918-10.233.017-14.142z"/><path d="m406.446 377.975v-13.007c0-5.522-4.477-10-10-10-5.522 0-10 4.478-10 10v13.007c0 5.522 4.478 10 10 10 5.523 0 10-4.478 10-10z"/><path d="m314.653 364.968v13.007c0 5.522 4.478 10 10 10 5.523 0 10-4.478 10-10v-13.007c0-5.522-4.477-10-10-10-5.522 0-10 4.477-10 10z"/><path d="m139.584 419.474c-3.901-3.911-10.232-3.919-14.143-.02-1.101 1.098-2.891 1.097-3.989 0-3.911-3.899-10.243-3.89-14.143.02-3.899 3.911-3.891 10.242.02 14.143 4.443 4.432 10.28 6.646 16.118 6.646 5.837 0 11.674-2.215 16.117-6.646 3.911-3.901 3.919-10.232.02-14.143z"/><path d="m169.343 390.35v-13.007c0-5.522-4.478-10-10-10-5.523 0-10 4.478-10 10v13.007c0 5.522 4.477 10 10 10 5.522 0 10-4.478 10-10z"/><path d="m77.551 377.343v13.007c0 5.522 4.478 10 10 10s10-4.478 10-10v-13.007c0-5.522-4.478-10-10-10-5.523 0-10 4.477-10 10z"/></g></svg>