<svg id="Capa_1" enable-background="new 0 0 512.001 512.001" height="512" viewBox="0 0 512.001 512.001" width="512" xmlns="http://www.w3.org/2000/svg"><g><path d="m273.57 237.373c3.911-3.899 3.921-10.231.021-14.143-3.9-3.91-10.23-3.92-14.143-.021-1.9 1.896-4.996 1.896-6.896 0-3.912-3.899-10.242-3.89-14.143.021-3.899 3.911-3.89 10.243.022 14.143 4.844 4.829 11.207 7.243 17.569 7.243s12.726-2.414 17.57-7.243z"/><path d="m297.655 198.326c5.522 0 10-4.478 10-10v-15.084c0-5.522-4.478-10-10-10s-10 4.478-10 10v15.084c0 5.522 4.477 10 10 10z"/><path d="m214.346 163.242c-5.523 0-10 4.478-10 10v15.084c0 5.522 4.477 10 10 10s10-4.478 10-10v-15.084c0-5.523-4.477-10-10-10z"/><path d="m365.884 301.012h-44.007c-3.597-8.732-10.104-15.002-18.378-17.519-.397-.12-4.418-1.264-10.528-1.025 46.782-13.533 74.585-47.709 79.361-97.71 14.442-3.059 25.313-15.896 25.313-31.223 0-14.185-9.311-26.237-22.148-30.38 5.431-20.923 5.91-45.031 1.409-71.865-2.072-12.358-4.845-22.806-6.806-29.393-3.992-13.415-4.913-14.208-6.749-15.789-2.105-1.812-4.872-2.663-7.626-2.36-2.76.307-5.268 1.745-6.924 3.974-3.4 4.575-22.593.466-35.292-2.252-13.906-2.977-28.291-6.049-41.653-5.377-14.422.73-25.337 5.906-32.556 15.427-40.094-7.57-69.627-1.559-87.848 17.906-24.974 26.68-20.1 70.28-16.178 90.155-12.197 4.496-20.918 16.227-20.918 29.955 0 14.974 10.376 27.572 24.322 30.997 4.71 50.097 32.498 84.343 79.302 97.913-5.532-.08-9.134.945-9.526 1.062-8.235 2.506-14.737 8.775-18.331 17.505h-44.006c-22.345 0-40.524 18.181-40.524 40.527v160.461c0 5.522 4.478 10 10 10h280.816c5.522 0 10-4.478 10-10v-160.461c0-22.347-18.18-40.528-40.525-40.528zm-199.799-253.952c14.1-15.028 39.628-18.588 75.87-10.581 4.488.991 9.075-1.206 11.117-5.324l.128-.257c7.553-14.983 28.027-11.882 56.123-5.871 15.52 3.322 30.452 6.516 41.907 3.573 5.482 18.677 14.203 57.791 4.083 92.517l-11.674-.797c-16.469-7.676-22.021-21.577-29.568-43.279-1.107-3.184-3.743-5.596-7.012-6.415-3.27-.82-6.732.06-9.21 2.346-26.856 24.748-60.004 40.406-98.521 46.537-19.455 3.099-35.459 2.844-43.972 2.332-3.237-15.343-8.845-53.918 10.729-74.781zm68.036 218.757c-47.751-9.614-74.044-41.001-76.037-90.767-.215-5.362-4.625-9.6-9.992-9.6h-1.79c-6.587 0-11.946-5.345-11.946-11.915s5.359-11.915 11.946-11.915h1.694c.574 0 1.137-.049 1.685-.142 3.442.314 9.098.69 16.448.69 9.442 0 21.682-.621 35.606-2.792 26.496-4.131 63.94-14.842 98.41-42.086 6.728 17.088 16.042 33.081 37.117 42.082 1.031.44 2.128.704 3.247.78l21.162 1.444c.346.024.689.029 1.03.017.111.004.222.006.333.006h2.663c6.587 0 11.946 5.345 11.946 11.915s-5.359 11.915-11.946 11.915h-2.759c-5.367 0-9.777 4.237-9.992 9.6-1.993 49.767-28.287 81.152-76.038 90.767-4.855.978-8.264 5.362-8.014 10.308l.697 13.814c-3.11 1.952-6.287 4.385-9.464 7.405h-8.257c-3.498-3.326-6.996-5.938-10.405-7.982l.667-13.238c.252-4.945-3.156-9.328-8.011-10.306zm-26.246 44.996c.694-2.536 2.449-6.97 6.353-8.157.125-.036 12.697-3.259 26.418 11.796 2.443 2.681 6.148 3.831 9.679 2.998.299-.07.607-.105.917-.105h9.327c.325 0 .646.039.952.114 3.566.886 7.332-.257 9.805-2.975 13.095-14.389 25.29-12.083 26.55-11.795 3.844 1.267 5.564 5.621 6.25 8.125v.001c1.885 6.874 2.147 16.132.739 26.063-.531 3.741-2.149 10.221-6.978 11.782-1.179.271-13.168 2.595-26.139-11.332-1.92-2.062-4.583-3.185-7.318-3.185-.922 0-1.853.128-2.765.39-.353.102-.722.153-1.097.153h-9.327c-.358 0-.713-.048-1.055-.142-3.59-.99-7.429.098-9.968 2.818-12.92 13.845-24.851 11.58-26.095 11.3-4.846-1.595-6.458-8.053-6.987-11.782-1.407-9.933-1.145-19.191.739-26.067zm-82.283 30.727c0-11.318 9.207-20.527 20.524-20.527h30.315l25.313 170.988h-76.152zm96.371 150.461-18.705-126.351c1.645.907 3.395 1.647 5.243 2.209.357.107 3.689 1.057 8.857 1.057 8.176 0 20.946-2.379 33.789-14.229h9.421c.094 0 .188-.001.282-.002 20.963 19.346 41.728 13.45 42.695 13.16 1.83-.557 3.564-1.29 5.195-2.187l-18.704 126.344h-68.073zm164.446 0h-76.152l25.313-170.988h30.315c11.317 0 20.524 9.209 20.524 20.527z"/></g></svg>