<svg id="Capa_1" enable-background="new 0 0 512 512" height="512" viewBox="0 0 512 512" width="512" xmlns="http://www.w3.org/2000/svg"><g><path d="m380.631 241.888c-11.975-11.803-27.624-18.303-44.062-18.303-22.02 0-40.243 15.208-50.264 25.798-9.786-10.648-27.725-25.798-50.579-25.798-16.438 0-32.085 6.5-44.059 18.303-11.773 11.604-18.741 27.059-19.622 43.52-1.126 21.118 7.08 36.213 13.352 45.729 15.387 23.346 87.203 71.145 95.342 76.518 1.671 1.104 3.59 1.655 5.51 1.655s3.839-.552 5.51-1.654c8.109-5.354 79.669-52.984 95.153-76.528 6.798-10.343 14.459-24.887 13.342-45.721-.882-16.461-7.851-31.916-19.623-43.519zm-10.431 78.251c-10.34 15.723-59.799 50.867-83.952 67.147-24.236-16.332-73.881-51.573-84.151-67.154-7.7-11.686-10.715-21.752-10.08-33.657 1.266-23.649 20.874-42.89 43.71-42.89 23.69 0 41.928 26.778 42.096 27.029 1.826 2.752 4.893 4.424 8.196 4.469 3.269.03 6.413-1.544 8.314-4.244.192-.272 19.805-27.254 42.237-27.254 22.837 0 42.447 19.24 43.713 42.891.635 11.876-2.38 21.944-10.083 33.663z"/><path d="m429.648 94.963h-52.826v-5.503c0-49.328-40.372-89.46-89.996-89.46-11.399 0-22.309 2.118-32.354 5.978-10.044-3.86-20.955-5.978-32.354-5.978-49.624 0-89.996 40.132-89.996 89.46v5.503h-49.77c-5.523 0-10 4.478-10 10v397.037c0 5.522 4.477 10 10 10h347.297c5.523 0 10-4.478 10-10v-397.037c-.001-5.523-4.478-10-10.001-10zm-142.821-74.963c38.596 0 69.996 31.159 69.996 69.46v5.503h-44.708v-5.503c0-27.776-12.801-52.636-32.846-69.058 2.482-.266 5.005-.402 7.558-.402zm-32.354 7.876c22.353 11.611 37.641 34.859 37.641 61.584v5.503h-75.283v-5.503c0-26.725 15.289-49.973 37.642-61.584zm-102.35 61.584c0-38.301 31.4-69.46 69.996-69.46 2.553 0 5.076.136 7.559.402-20.045 16.421-32.846 41.281-32.846 69.058v5.503h-44.709zm-59.771 25.503h29.771v377.037h-29.771zm327.296 377.037h-277.525v-377.037h54.709v44.59h-1.062c-5.523 0-10 4.478-10 10s4.477 10 10 10h22.124c5.523 0 10-4.478 10-10s-4.477-10-10-10h-1.062v-44.59h139.991v44.59h-1.062c-5.523 0-10 4.478-10 10s4.477 10 10 10h22.124c5.523 0 10-4.478 10-10s-4.477-10-10-10h-1.062v-44.59h42.826v377.037z"/></g></svg>