<svg id="Capa_1" enable-background="new 0 0 512 512" height="512" viewBox="0 0 512 512" width="512" xmlns="http://www.w3.org/2000/svg"><g><path d="m266.447 136.368h-202.933c-5.522 0-10 4.478-10 10v219.264c0 5.522 4.478 10 10 10h202.934c5.522 0 10-4.478 10-10v-219.264c-.001-5.522-4.478-10-10.001-10zm-10 219.264h-182.933v-199.264h182.934v199.264z"/><path d="m484.023 82.09h-456.046c-15.427 0-27.977 12.55-27.977 27.976v291.867c0 15.427 12.55 27.977 27.977 27.977h456.047c15.427 0 27.977-12.55 27.977-27.977v-291.867c-.001-15.426-12.551-27.976-27.978-27.976zm-464.023 319.844v-291.868c0-4.398 3.578-7.977 7.977-7.977h281.983v307.82h-281.983c-4.399.001-7.977-3.577-7.977-7.975zm472 0c0 4.398-3.578 7.977-7.977 7.977h-154.063v-307.821h154.063c4.398 0 7.977 3.578 7.977 7.977z"/><path d="m157.73 317.59c1.671 1.104 3.59 1.655 5.51 1.655 1.919 0 3.839-.552 5.51-1.654 7.041-4.649 42.593-28.488 51.021-41.304 3.642-5.541 8.406-14.342 7.741-26.742-1.104-20.63-17.8-36.79-38.01-36.79-10.951 0-20.065 5.932-26.189 11.473-6.037-5.565-15.113-11.473-26.439-11.473-20.208 0-36.903 16.16-38.01 36.792-.661 12.431 4.106 21.221 7.751 26.751 8.376 12.71 44.048 36.627 51.115 41.292zm-38.895-66.976c.528-9.848 8.62-17.859 18.038-17.859 8.097 0 15.747 8.669 17.985 11.97 1.819 2.739 4.88 4.394 8.168 4.451 3.276.033 6.405-1.52 8.319-4.194 2.27-3.172 10.479-12.227 18.155-12.227 9.42 0 17.512 8.012 18.039 17.859.276 5.166-1.022 9.422-4.482 14.686-4.05 6.158-24.114 21.184-39.819 31.899-15.767-10.752-35.903-25.807-39.925-31.906-3.456-5.246-4.753-9.5-4.478-14.679z"/><path d="m452.725 187.596h-83.489c-5.523 0-10 4.477-10 10 0 5.522 4.477 10 10 10h83.489c5.522 0 10-4.478 10-10 0-5.523-4.478-10-10-10z"/><path d="m452.725 246h-83.489c-5.523 0-10 4.477-10 10 0 5.522 4.477 10 10 10h83.489c5.522 0 10-4.478 10-10 0-5.523-4.478-10-10-10z"/><path d="m452.725 304.404h-83.489c-5.523 0-10 4.478-10 10s4.477 10 10 10h83.489c5.522 0 10-4.478 10-10s-4.478-10-10-10z"/></g></svg>