<svg id="Capa_1" enable-background="new 0 0 511.999 511.999" height="512" viewBox="0 0 511.999 511.999" width="512" xmlns="http://www.w3.org/2000/svg"><path d="m392.004 322.786c34.089-34.381 55.159-81.58 55.159-133.586 0-47.297-17.103-92.536-48.159-127.385-30.996-34.781-73.624-56.713-120.031-61.757-2.82-.303-5.645.602-7.759 2.498-2.114 1.897-3.322 4.603-3.322 7.443v48.964c0 4.948 3.618 9.151 8.511 9.889 59.083 8.899 101.967 59.513 101.967 120.349 0 67.118-54.895 121.723-122.371 121.723s-122.371-54.605-122.371-121.723c0-60.836 42.883-111.45 101.967-120.349 4.893-.737 8.511-4.941 8.511-9.889v-48.964c0-2.84-1.208-5.546-3.322-7.443-2.115-1.896-4.938-2.802-7.759-2.498-46.407 5.044-89.035 26.977-120.03 61.758-31.056 34.848-48.159 80.087-48.159 127.384 0 52.006 21.07 99.205 55.159 133.586-10.466 8.934-16.758 22.106-16.758 36.307 0 26.358 21.527 47.802 47.988 47.802 3.574 0 7.058-.392 10.412-1.134-.08.817-.143 1.638-.187 2.462-.945 17.703 5.911 30.319 11.151 38.27 12.667 19.216 71.226 59.275 77.862 63.78 1.695 1.151 3.656 1.726 5.617 1.726 1.96 0 3.921-.576 5.617-1.727 6.612-4.488 64.963-44.412 77.71-63.79 5.237-7.966 12.089-20.599 11.143-38.26-.044-.823-.107-1.644-.187-2.461 3.353.742 6.838 1.134 10.412 1.134 26.461 0 47.988-21.444 47.988-47.802-.001-14.201-6.293-27.373-16.759-36.307zm-167.898-301.27v29.112c-29.839 6.412-56.822 22.484-76.7 45.852-21.782 25.605-33.777 58.534-33.777 92.721 0 78.146 63.867 141.723 142.371 141.723s142.37-63.577 142.37-141.723c0-34.188-11.996-67.116-33.777-92.721-19.878-23.368-46.861-39.44-76.7-45.852v-29.112c80.143 14.11 139.27 84.306 139.27 167.685 0 93.891-76.783 170.277-171.163 170.277s-171.164-76.387-171.164-170.278c0-83.378 59.128-153.574 139.27-167.684zm4.196 379.339c.28-5.228 4.518-9.48 9.448-9.48 3.906 0 8.396 4.708 9.92 6.929 1.826 2.751 4.893 4.423 8.195 4.468 3.329.019 6.413-1.543 8.314-4.244 1.701-2.417 6.555-7.154 10.069-7.154 4.931 0 9.169 4.253 9.449 9.481.156 2.904-.575 5.241-2.607 8.332-2.197 3.339-13.759 12.754-25.056 21.03-11.342-8.3-22.943-17.726-25.127-21.039-2.03-3.076-2.76-5.411-2.605-8.323zm-105.065-41.762c0-9.126 4.483-17.526 11.78-22.675 13.261 10.817 28.004 19.897 43.876 26.888-2.05 13.338-13.676 23.59-27.667 23.59-15.433 0-27.989-12.473-27.989-27.803zm199.459 76.401c-7.357 11.185-42.607 37.717-66.617 54.376-24.1-16.713-59.473-43.3-66.779-54.383-6.015-9.127-8.372-16.961-7.878-26.195.976-18.224 16.059-33.05 33.624-33.05 1.94 0 3.835.238 5.674.663-7.093 5.133-11.881 13.396-12.389 22.884-.508 9.522 3.111 16.203 5.876 20.398 5.908 8.964 29.111 25.629 36.082 30.523 1.724 1.211 3.735 1.816 5.746 1.816s4.023-.605 5.747-1.817c6.946-4.878 30.074-21.497 36.017-30.533 2.763-4.203 6.378-10.89 5.869-20.391-.506-9.458-5.266-17.699-12.324-22.835 1.834-.454 3.708-.709 5.606-.709 17.566 0 32.652 14.826 33.627 33.05.494 9.212-1.864 17.049-7.881 26.203zm38.078-48.598c-13.991 0-25.618-10.251-27.668-23.59 15.871-6.991 30.614-16.071 43.876-26.888 7.297 5.149 11.78 13.549 11.78 22.675 0 15.33-12.555 27.803-27.988 27.803z"/></svg>