<svg id="Capa_1" enable-background="new 0 0 512 512" height="512" viewBox="0 0 512 512" width="512" xmlns="http://www.w3.org/2000/svg"><path d="m455.497 291.798h-3.961v-49.812c0-79.638-48.667-151.462-121.924-181.245 1.72-5.073 2.824-11.074 2.45-18.041-1.281-23.944-20.636-42.7-44.064-42.7-13.59 0-24.797 7.959-31.919 14.798-7.041-6.844-18.207-14.798-32.079-14.798-23.428 0-42.782 18.756-44.063 42.702-.373 6.974.729 12.973 2.447 18.042-73.261 29.784-121.92 101.592-121.92 181.243v49.812h-3.961c-5.522 0-10 4.477-10 10v55.832c0 5.523 4.478 10 10 10h3.961v134.369c0 5.523 4.477 10 10 10h43.409c.103 0 .205-.002.307-.005.102.003.204.005.307.005h77.575c5.523 0 10-4.477 10-10v-119.557c0-5.005-.454-9.955-1.355-14.813h11.548c5.522 0 10-4.477 10-10v-55.832c0-3.932-2.27-7.334-5.571-8.967 12.05-14.303 18.828-32.508 18.828-51.942v-127.596c6.887 4.828 12.497 8.572 15.04 10.251 1.671 1.104 3.591 1.655 5.511 1.655s3.84-.552 5.511-1.655c2.61-1.723 8.463-5.63 15.612-10.658v128.004c0 19.335 6.703 37.445 18.631 51.711-3.57 1.527-6.071 5.07-6.071 9.198v55.832c0 5.523 4.478 10 10 10h12.246c-.902 4.86-1.356 9.81-1.356 14.813v119.556c0 5.523 4.478 10 10 10h120.9c5.522 0 10-4.477 10-10v-134.37h3.961c5.522 0 10-4.477 10-10v-55.832c0-5.523-4.477-10-10-10zm-23.961-49.811v49.812h-23.409v-49.812c0-36.601-13.233-71.996-37.259-99.665-19.041-21.928-43.806-37.863-71.203-46.1 7.889-6.239 15.193-12.58 19.93-17.94 67.149 26.109 111.941 91.31 111.941 163.705zm-106.796 49.811c-17.295-11.285-27.555-30.161-27.555-50.909v-124.471c53.105 17.567 90.942 68.174 90.942 125.569v49.812h-63.387zm-244.276-49.811c0-72.412 44.792-137.601 111.949-163.708 4.738 5.339 12.064 11.679 19.979 17.925-27.331 8.205-52.045 24.068-71.082 45.914-24.142 27.703-37.437 63.17-37.437 99.87v49.812h-23.409zm107.494 49.811h-64.085v-49.812c0-57.722 38.145-108.461 91.639-125.802v124.706c0 20.741-10.262 39.623-27.554 50.908zm-107.494 200.202v-124.37h23.409v124.37zm101.597-109.557v109.557h-58.188v-124.37h56.373c1.206 4.815 1.815 9.775 1.815 14.813zm20.194-34.813h-135.752v-35.832h135.752zm53.806-244.467c-18.609-12.628-44.944-32.024-50.354-40.233-4.424-6.715-6.158-12.445-5.8-19.161.702-13.106 11.51-23.769 24.093-23.769 10.82 0 20.771 11.23 23.671 15.524 1.826 2.752 4.894 4.425 8.196 4.47.045.001.091.001.136.001 3.252 0 6.305-1.582 8.179-4.246 2.874-4.086 13.419-15.749 23.816-15.749 12.584 0 23.392 10.663 24.093 23.771.359 6.698-1.377 12.431-5.803 19.166-5.447 8.284-31.687 27.64-50.227 40.226zm53.684 208.635h135.752v35.832h-135.752zm20.891 70.645c0-5.036.61-9.996 1.816-14.813h55.676v124.37h-57.491v-109.557zm100.9 109.557h-23.409v-124.37h23.409z"/></svg>