<svg id="Capa_1" enable-background="new 0 0 512 512" height="512" viewBox="0 0 512 512" width="512" xmlns="http://www.w3.org/2000/svg"><g><path d="m460.107 282.786c-1.527-28.514-13.61-55.29-34.022-75.395-3.175-3.127-6.498-6.038-9.953-8.727v-38.644c0-88.235-71.833-160.02-160.128-160.02s-160.127 71.785-160.127 160.02v38.642c-3.455 2.689-6.78 5.601-9.956 8.729-20.411 20.106-32.494 46.881-34.021 75.396-1.516 28.396 5.726 53.065 23.48 79.99 17.427 26.424 78.799 84.467 127.214 128.506 14.688 13.361 33.71 20.717 53.566 20.717h.027c19.866-.007 38.895-7.377 53.58-20.754 48.204-43.911 109.343-101.845 126.872-128.479 11.949-18.166 25.415-43.674 23.468-79.981zm-344.23-122.766c0-77.207 62.861-140.02 140.127-140.02s140.127 62.813 140.127 140.02v26.25c-8.861-4.246-18.237-7.253-27.912-8.929v-17.321c0-61.836-50.34-112.143-112.216-112.143-61.877 0-112.216 50.307-112.216 112.143v17.32c-9.674 1.676-19.05 4.682-27.911 8.928v-26.248zm232.343 15.772c-42.633.697-77.471 26.13-92.053 38.626-14.18-12.622-48.084-37.957-92.379-38.627v-15.771c0-50.808 41.368-92.143 92.216-92.143s92.216 41.335 92.216 92.143zm71.711 175.981c-12.785 19.426-56.691 63.707-123.633 124.687-22.866 20.829-57.364 20.841-80.246.027-67.241-61.163-111.27-105.457-123.976-124.722-15.246-23.121-21.477-44.065-20.204-67.911 2.601-48.566 43.03-88.078 90.123-88.078 49.807 0 86.309 38.747 86.66 39.125 1.856 2.017 4.463 3.178 7.203 3.222 2.703.031 5.383-1.043 7.303-2.999.386-.394 39.168-39.347 86.846-39.347 47.096 0 87.528 39.512 90.129 88.079 1.293 24.11-4.75 44.422-20.205 67.917z"/><path d="m313.914 321.456c0-31.932-25.979-57.91-57.91-57.91s-57.91 25.978-57.91 57.91c0 17.446 7.72 33.654 20.953 44.595l-9.967 45.361c-.65 2.958.076 6.052 1.974 8.413 1.898 2.36 4.764 3.733 7.793 3.733h74.314c3.029 0 5.895-1.373 7.793-3.733 1.898-2.361 2.624-5.454 1.974-8.413l-9.967-45.361c13.233-10.942 20.953-27.15 20.953-44.595zm-37.508 31.959c-3.529 2.258-5.275 6.477-4.376 10.568l8.696 39.574h-49.442l8.696-39.574c.899-4.092-.848-8.31-4.376-10.568-10.963-7.017-17.508-18.965-17.508-31.959 0-20.904 17.006-37.91 37.91-37.91s37.91 17.006 37.91 37.91c-.002 12.994-6.547 24.942-17.51 31.959z"/></g></svg>