<svg id="Capa_1" enable-background="new 0 0 512 512" height="512" viewBox="0 0 512 512" width="512" xmlns="http://www.w3.org/2000/svg"><g><path d="m250.554 241.957c1.671 1.104 3.59 1.655 5.51 1.655 1.919 0 3.839-.552 5.51-1.655 8.598-5.676 51.998-34.771 62.119-50.162 4.303-6.546 9.933-16.934 9.15-31.515-1.293-24.16-20.825-43.086-44.467-43.086-13.765 0-25.11 8.094-32.297 15.016-7.102-6.926-18.406-15.016-32.457-15.016-23.641 0-43.172 18.925-44.465 43.086-.78 14.614 4.853 24.99 9.159 31.524 10.058 15.265 53.609 44.456 62.238 50.153zm-51.426-80.609c.712-13.318 11.701-24.154 24.494-24.154 11.002 0 21.106 11.397 24.05 15.757 1.82 2.742 4.882 4.399 8.173 4.455 3.296.049 6.407-1.525 8.319-4.205 3.176-4.452 13.718-16.007 24.213-16.007 12.794 0 23.783 10.836 24.496 24.155.364 6.802-1.397 12.623-5.892 19.458-5.526 8.404-32.148 28.034-50.918 40.769-18.839-12.775-45.555-32.443-51.047-40.776-4.492-6.815-6.252-12.633-5.888-19.452z"/><path d="m427.72 0h-343.44c-20.17 0-36.58 16.405-36.58 36.57v438.86c0 20.164 16.41 36.57 36.58 36.57h343.44c20.17 0 36.58-16.405 36.58-36.57v-438.86c0-20.165-16.41-36.57-36.58-36.57zm-205.322 20-154.698 154.698v-64.055l90.652-90.643zm-138.118 0h45.786l-62.366 62.36v-45.79c0-9.137 7.438-16.57 16.58-16.57zm-16.58 455.43v-272.448l182.983-182.982h177.037c9.143 0 16.58 7.433 16.58 16.57v272.448l-182.983 182.982h-177.037c-9.142 0-16.58-7.433-16.58-16.57zm221.902 16.57 154.698-154.698v64.055l-90.652 90.643zm138.118 0h-45.786l62.366-62.36v45.79c0 9.137-7.438 16.57-16.58 16.57z"/><path d="m356.153 298.383c0-5.523-4.478-10-10-10h-180.307c-5.523 0-10 4.477-10 10s4.477 10 10 10h180.307c5.523 0 10-4.477 10-10z"/><path d="m316.353 362.039c5.522 0 10-4.477 10-10s-4.478-10-10-10h-120.706c-5.523 0-10 4.477-10 10s4.477 10 10 10z"/></g></svg>