<svg id="Capa_1" enable-background="new 0 0 512 512" height="512" viewBox="0 0 512 512" width="512" xmlns="http://www.w3.org/2000/svg"><g><path d="m439.815 0h-334.976c-23.52 0-42.654 19.134-42.654 42.654v426.692c0 23.52 19.134 42.654 42.654 42.654h334.976c5.523 0 10-4.477 10-10v-492c0-5.523-4.477-10-10-10zm-357.63 469.346v-426.692c0-12.491 10.163-22.654 22.654-22.654h2.994v472h-2.994c-12.491 0-22.654-10.163-22.654-22.654zm347.63 22.654h-301.982v-472h301.982z"/><path d="m181.328 220.787h58.971v99.29c0 5.523 4.477 10 10 10h57.049c5.523 0 10-4.477 10-10v-99.29h58.971c5.523 0 10-4.477 10-10v-57.049c0-5.523-4.477-10-10-10h-58.971v-55.702c0-5.523-4.477-10-10-10h-57.049c-5.523 0-10 4.477-10 10v55.702h-58.971c-5.523 0-10 4.477-10 10v57.049c0 5.523 4.477 10 10 10zm10-57.05h58.971c5.523 0 10-4.477 10-10v-55.701h37.049v55.702c0 5.523 4.477 10 10 10h58.971v37.049h-58.971c-5.523 0-10 4.477-10 10v99.29h-37.049v-99.29c0-5.523-4.477-10-10-10h-58.971z"/><path d="m347.908 419.553h-138.168c-5.523 0-10 4.477-10 10s4.477 10 10 10h138.168c5.523 0 10-4.477 10-10s-4.477-10-10-10z"/></g></svg>