<svg id="Capa_1" enable-background="new 0 0 511.997 511.997" height="512" viewBox="0 0 511.997 511.997" width="512" xmlns="http://www.w3.org/2000/svg"><g><path d="m223.514 221.279c-7.917-7.84-17.341-13.494-27.538-16.656.504-3.309.735-6.552.735-10.018 0-37.816-28.11-69.164-64.451-74.084v-11.161h21.436c5.523 0 10-4.477 10-10s-4.477-10-10-10h-62.872c-5.523 0-10 4.477-10 10s4.477 10 10 10h21.436v11.161c-36.341 4.92-64.451 36.268-64.451 74.084 0 3.467.231 6.709.735 10.017-10.198 3.162-19.623 8.816-27.54 16.656-12.536 12.415-19.955 28.945-20.893 46.548-1.2 22.603 7.555 38.777 14.244 48.977 16.329 24.893 97.777 100.004 101.236 103.19 1.915 1.763 4.344 2.644 6.774 2.644 2.431 0 4.863-.883 6.777-2.647 3.447-3.177 84.594-78.09 101.028-103.197 7.253-11.086 15.425-26.67 14.235-48.968-.937-17.603-8.357-34.132-20.891-46.546zm-101.255-81.43c30.024 0 54.451 24.564 54.451 54.756 0 2.496-.157 4.753-.515 7.086-23.702.177-43.261 16.947-53.776 28.265-10.262-11.384-29.496-28.093-54.096-28.266-.359-2.332-.515-4.589-.515-7.086 0-30.191 24.427-54.755 54.451-54.755zm-24.205 102.01c7.076 0 13.871 7.758 15.863 10.705 1.816 2.749 4.883 4.408 8.177 4.468 3.285.047 6.419-1.527 8.333-4.208 2.03-2.844 9.332-10.964 16.035-10.964 8.244 0 15.328 7.081 15.791 15.785.246 4.607-.914 8.413-4.003 13.135-4.506 6.883-23.383 30.83-35.951 46.593-12.61-15.788-31.558-39.775-36.035-46.601-3.086-4.707-4.245-8.511-4-13.129.464-8.703 7.547-15.784 15.79-15.784zm115.382 63.983c-11.438 17.474-64.48 68.353-91.075 93.158-26.684-24.859-79.919-75.844-91.282-93.166-8.402-12.811-11.69-23.861-10.996-36.945 1.387-26.026 22.855-47.2 47.857-47.2 5.473 0 10.675 1.306 15.479 3.37-11.88 5.463-20.374 17.379-21.127 31.522-.622 11.697 3.838 19.96 7.248 25.16 7.243 11.041 43.442 55.992 44.98 57.9 1.899 2.356 4.761 3.726 7.787 3.726h.004c3.027-.001 5.891-1.374 7.788-3.732 1.532-1.904 37.597-46.766 44.887-57.903 3.406-5.207 7.863-13.478 7.24-25.151-.748-14.046-9.133-25.895-20.887-31.408 4.799-2.13 9.934-3.483 15.235-3.483 25.004 0 46.474 21.173 47.86 47.2.696 13.052-2.593 24.103-10.998 36.952z"/><path d="m511.88 267.825c-.938-17.602-8.357-34.132-20.892-46.545-7.917-7.84-17.341-13.494-27.538-16.656.503-3.309.735-6.551.735-10.018 0-37.816-28.11-69.164-64.451-74.084v-11.162h21.436c5.522 0 10-4.477 10-10s-4.478-10-10-10h-62.871c-5.522 0-10 4.477-10 10s4.478 10 10 10h21.436v11.161c-36.341 4.92-64.451 36.268-64.451 74.084 0 3.467.231 6.71.735 10.018-10.198 3.162-19.622 8.816-27.539 16.656-12.535 12.413-19.954 28.944-20.892 46.547-1.199 22.603 7.555 38.777 14.245 48.977 16.329 24.893 97.776 100.004 101.236 103.19 1.914 1.763 4.344 2.644 6.773 2.644 2.432 0 4.863-.883 6.777-2.647 3.446-3.177 84.594-78.09 101.028-103.197 7.252-11.086 15.424-26.671 14.233-48.968zm-122.146-127.976c30.024 0 54.451 24.564 54.451 54.756 0 2.496-.157 4.754-.515 7.086-23.702.177-43.261 16.947-53.776 28.266-10.262-11.384-29.496-28.094-54.096-28.266-.359-2.332-.515-4.589-.515-7.086 0-30.192 24.426-54.756 54.451-54.756zm-24.205 102.01c7.076 0 13.871 7.758 15.863 10.704 1.824 2.762 4.898 4.442 8.208 4.487 3.354.025 6.429-1.552 8.326-4.262 1.617-2.309 9.073-10.929 16.011-10.929 8.244 0 15.328 7.081 15.792 15.785.245 4.606-.915 8.413-4.004 13.135-4.506 6.883-23.382 30.83-35.95 46.593-12.611-15.788-31.56-39.776-36.036-46.6-3.086-4.708-4.245-8.512-3.999-13.13.463-8.702 7.546-15.783 15.789-15.783zm115.382 63.983c-11.439 17.474-64.479 68.353-91.074 93.158-26.684-24.858-79.917-75.84-91.282-93.166-8.402-12.811-11.691-23.861-10.996-36.945 1.386-26.026 22.855-47.2 47.857-47.2 5.473 0 10.675 1.306 15.479 3.37-11.88 5.463-20.374 17.379-21.127 31.522-.621 11.696 3.839 19.96 7.248 25.16 7.242 11.041 43.442 55.992 44.979 57.9 1.898 2.356 4.762 3.726 7.787 3.726h.004c3.027-.001 5.891-1.374 7.788-3.732 1.532-1.904 37.597-46.766 44.887-57.904 3.406-5.207 7.862-13.479 7.24-25.15-.748-14.046-9.133-25.896-20.888-31.408 4.799-2.13 9.934-3.483 15.235-3.483 25.004 0 46.475 21.173 47.861 47.2.697 13.052-2.593 24.103-10.998 36.952z"/></g></svg>