<svg id="Capa_1" enable-background="new 0 0 512 512" height="512" viewBox="0 0 512 512" width="512" xmlns="http://www.w3.org/2000/svg"><path d="m496.683 67.963c-.007-.008-.014-.016-.022-.023-10.261-10.556-24.026-16.37-38.761-16.37h-403.8c-14.724 0-28.48 5.805-38.739 16.347-.004.004-.009.008-.013.013-9.897 10.154-15.348 23.557-15.348 37.74v300.66c0 14.899 5.929 28.779 16.695 39.084.006.006.012.011.017.016 10.104 9.673 23.38 14.999 37.387 14.999h403.8c14.005 0 27.281-5.326 37.384-14.997.007-.006.013-.012.019-.018 10.768-10.304 16.698-24.185 16.698-39.084v-300.66c0-14.168-5.44-27.557-15.317-37.707zm-176.45 230.931c6.93-6.077 12.606-11.8 15.628-16.395 5.025-7.646 11.602-19.773 10.691-36.742-.38-7.101-2.118-13.811-4.945-19.874l146.505-136.047c2.54 4.83 3.888 10.235 3.888 15.834v300.66c0 6.538-1.812 12.764-5.203 18.136zm-295.039 125.558c-3.385-5.369-5.194-11.59-5.194-18.122v-300.66c0-5.601 1.349-11.008 3.891-15.84l146.559 135.927c-2.862 6.096-4.622 12.851-5.004 20.001-.907 17.006 5.673 29.118 10.702 36.751 2.968 4.503 8.545 10.126 15.373 16.114zm167.653-152.948c-5.672-8.607-7.894-15.989-7.43-24.678.916-17.121 15.076-31.049 31.564-31.049 17.096 0 30.574 19.732 30.69 19.905 1.821 2.744 4.884 4.404 8.177 4.458 3.29.074 6.409-1.528 8.318-4.212 3.988-5.605 17.305-20.15 30.849-20.15 16.489 0 30.649 13.928 31.566 31.049.465 8.67-1.759 16.053-7.432 24.684-6.933 10.541-40.265 35.063-63.075 50.479-22.893-15.465-56.339-40.034-63.227-50.486zm-138.747-199.934h403.8c5.74 0 11.246 1.399 16.141 4.039l-144.263 133.966c-9.195-8.586-21.413-13.797-34.762-13.797-16.665 0-30.564 10.657-38.873 18.974-8.145-8.359-21.888-18.974-39.161-18.974-13.302 0-25.482 5.175-34.665 13.708l-144.351-133.881c4.893-2.637 10.396-4.035 16.134-4.035zm403.8 368.86h-403.8c-4.642 0-9.155-.927-13.317-2.692l166.67-126.088c18.895 14.621 39.422 28.276 43.114 30.714 1.671 1.103 3.59 1.655 5.51 1.655 1.919 0 3.839-.552 5.51-1.655 3.661-2.417 23.935-15.905 42.711-30.438l166.896 125.823c-4.157 1.757-8.662 2.681-13.294 2.681z"/></svg>