<svg id="Capa_1" enable-background="new 0 0 512 512" height="512" viewBox="0 0 512 512" width="512" xmlns="http://www.w3.org/2000/svg"><g><path d="m463.42 109.097h-42.59v-28.214c0-5.523-4.477-10-10-10h-61.061v-12.441c0-15.618-12.707-28.325-28.325-28.325h-130.888c-15.619 0-28.325 12.706-28.325 28.325v12.441h-61.061c-5.523 0-10 4.477-10 10v28.214h-42.59c-26.787 0-48.58 21.793-48.58 48.58v275.627c0 26.787 21.793 48.579 48.58 48.579h414.84c26.787 0 48.58-21.793 48.58-48.579v-275.627c0-26.787-21.793-48.58-48.58-48.58zm-62.59-18.214v18.214h-51.061v-18.214zm-42.651 38.214v332.786h-204.358v-332.786zm-175.948-70.655c0-4.59 3.735-8.325 8.325-8.325h130.888c4.59 0 8.325 3.734 8.325 8.325v50.655h-147.538zm-71.061 32.441h51.061v18.214h-51.061zm-91.17 342.421v-275.627c0-15.759 12.821-28.58 28.58-28.58h9.503v332.786h-9.503c-15.759 0-28.58-12.82-28.58-28.579zm58.082 28.579v-332.786h55.739v332.786zm300.097 0v-332.786h55.739v332.786zm113.821-28.579c0 15.759-12.821 28.579-28.58 28.579h-9.503v-332.786h9.503c15.759 0 28.58 12.821 28.58 28.58z"/><path d="m263.524 327.839c0 19.897 16.188 36.085 36.085 36.085s36.085-16.188 36.085-36.085-16.188-36.085-36.085-36.085-36.085 16.187-36.085 36.085zm36.085-16.085c8.87 0 16.085 7.216 16.085 16.085s-7.216 16.085-16.085 16.085-16.085-7.216-16.085-16.085 7.216-16.085 16.085-16.085z"/><path d="m217.15 261.017c2.124.437 4.838.625 7.94.625 16.994 0 45.575-5.645 51.996-6.958 3.923-.803 6.989-3.869 7.792-7.792 1.549-7.567 9.129-46.017 6.266-59.883-1.25-6.042-3.907-14.971-12.525-22.711-14.36-12.903-36.079-12.544-49.441.818 0 0 0 0-.001 0-7.002 7.003-9.205 16.506-9.696 24.069-7.526.425-17 2.627-24.237 9.865-13.362 13.361-13.722 35.078-.817 49.442 7.759 8.634 16.684 11.282 22.723 12.525zm-7.764-47.826c3.255-3.255 8.766-4.085 13.13-4.085 2.26 0 4.213.223 5.386.446 3.222.652 6.554-.346 8.919-2.627 2.366-2.281 3.456-5.602 2.921-8.846-.559-3.396-1.103-14.143 3.577-18.822 5.749-5.747 15.588-5.785 21.934-.083 3.357 3.015 5.184 6.458 6.305 11.881 1.321 6.395-1.832 28.432-4.999 45.312-18.628 3.507-39.616 6.245-45.382 5.059-5.411-1.113-8.851-2.939-11.874-6.303-5.701-6.346-5.664-16.185.083-21.932z"/><path d="m243.041 365.436h-48c-5.523 0-10 4.477-10 10v48c0 5.523 4.477 10 10 10h48c5.523 0 10-4.477 10-10v-48c0-5.523-4.477-10-10-10zm-10 48h-28v-28h28z"/></g></svg>