<svg id="Capa_1" enable-background="new 0 0 511.943 511.943" height="512" viewBox="0 0 511.943 511.943" width="512" xmlns="http://www.w3.org/2000/svg"><path d="m448.11 423.108c-15.731-219.509-96.819-264.243-123.446-273.055l.05-4.1c.262-21.4 4.004-31.819 11.448-52.553l.183-.506c1.323-3.671 2.718-7.262 4.066-10.735 8.865-22.839 18.034-46.455-7.926-66.504l.001.001c-25.869-19.981-52.139-18.748-76.473 3.395-24.03-22.385-48.708-25.064-73.47-7.926-29.074 20.124-19.357 46.169-9.961 71.356.993 2.662 2.011 5.387 3.017 8.182l.332.924c7.848 21.949 11.614 33.503 11.497 56.101l-.012 2.282c-26.57 8.596-107.88 52.793-123.596 273.147-12.061 7.787-20.062 21.347-20.062 36.741v42.085c0 5.523 4.477 10 10 10h404.426c5.522 0 10-4.477 10-10v-42.085c0-15.399-8.006-28.963-20.074-36.75zm-218.974-381.34c.268-4.99 4.307-9.05 9.004-9.05 3.722 0 8.036 4.534 9.503 6.67 1.826 2.752 4.876 4.448 8.178 4.493.047 0 .093.001.139.001 3.25 0 6.284-1.558 8.158-4.221 1.749-2.421 6.386-6.943 9.686-6.943 4.698 0 8.736 4.06 9.004 9.052.149 2.785-.555 5.031-2.511 8.006-2.097 3.187-13.321 11.897-24.291 19.48-11.014-7.606-22.278-16.327-24.361-19.486-1.955-2.966-2.658-5.209-2.509-8.002zm-35.209-14.198c7.352-5.089 15.363-8.924 24.923-7.363-5.585 5.072-9.247 12.321-9.684 20.493-.5 9.372 3.058 15.944 5.778 20.074 5.872 8.909 28.698 24.37 35.554 28.897 1.671 1.103 3.59 1.655 5.51 1.655 1.919 0 3.839-.552 5.51-1.655 6.832-4.511 29.584-19.927 35.49-28.907 2.718-4.135 6.273-10.713 5.771-20.064-.403-7.537-3.549-14.29-8.418-19.273 9.915-.586 18.405 4.267 25.9 10.056h.001c13.035 10.067 11.047 18.859 1.506 43.437-1.392 3.585-2.831 7.291-4.25 11.228l-.168.468c-7.69 21.412-12.33 34.336-12.633 59.092l-.027 2.196h-97.261l.001-.114c.134-25.862-4.486-40.063-12.666-62.941l-.346-.963c-1.032-2.867-2.075-5.665-3.095-8.397-10.335-27.698-12.413-37.526 2.604-47.919zm-46.1 177.144c23.981-30.526 46.395-36.107 49.876-36.809h116.551c3.276.664 24.76 6.022 48.303 35.136 24.433 30.216 55.107 91.575 64.973 213.221-1.007-.069-2.023-.106-3.047-.106-13.551 0-25.68 6.199-33.702 15.91-8.023-9.711-20.151-15.91-33.702-15.91s-25.68 6.199-33.702 15.91c-8.022-9.711-20.151-15.91-33.702-15.91s-25.68 6.199-33.702 15.91c-8.023-9.711-20.151-15.91-33.702-15.91s-25.68 6.199-33.702 15.91c-8.023-9.711-20.151-15.91-33.702-15.91s-25.68 6.199-33.702 15.91c-8.022-9.711-20.151-15.91-33.702-15.91-1.03 0-2.05.037-3.062.107 9.694-120.094 39.613-181.236 63.426-211.549zm300.357 287.229h-384.425v-32.085c0-13.069 10.633-23.702 23.702-23.702s23.702 10.633 23.702 23.702c0 5.523 4.478 10 10 10s10-4.477 10-10c0-13.069 10.633-23.702 23.702-23.702s23.702 10.633 23.702 23.702c0 5.523 4.477 10 10 10 5.522 0 10-4.477 10-10 0-13.069 10.633-23.702 23.702-23.702s23.702 10.633 23.702 23.702c0 5.523 4.477 10 10 10s10-4.477 10-10c0-13.069 10.633-23.702 23.702-23.702s23.702 10.633 23.702 23.702c0 5.523 4.478 10 10 10 5.523 0 10-4.477 10-10 0-13.069 10.633-23.702 23.702-23.702s23.702 10.633 23.702 23.702c0 5.523 4.477 10 10 10 5.522 0 10-4.477 10-10 0-13.069 10.633-23.702 23.702-23.702s23.702 10.633 23.702 23.702v32.085z"/></svg>