<svg id="Capa_1" enable-background="new 0 0 512 512" height="512" viewBox="0 0 512 512" width="512" xmlns="http://www.w3.org/2000/svg"><g><path d="m369.841 155.511c1.672 1.105 3.593 1.657 5.514 1.657s3.842-.552 5.514-1.657c6.206-4.102 60.988-40.601 73.022-58.917 4.951-7.538 11.429-19.495 10.532-36.229-1.479-27.649-23.797-49.307-50.811-49.307-16.347 0-29.99 10.403-38.191 18.584-8.041-8.224-21.533-18.584-38.478-18.584-27.012 0-49.329 21.658-50.808 49.309-.895 16.771 5.586 28.712 10.54 36.236 11.961 18.165 66.937 54.791 73.166 58.908zm-63.735-94.077c.896-16.749 14.729-30.376 30.837-30.376 16.698 0 29.892 19.328 30.005 19.497 1.82 2.746 4.885 4.407 8.179 4.46 3.315.06 6.411-1.529 8.32-4.214 3.905-5.491 16.938-19.743 30.165-19.743 16.109 0 29.943 13.626 30.84 30.376.454 8.489-1.723 15.72-7.277 24.179-6.787 10.33-39.424 34.368-61.821 49.524-22.481-15.208-55.233-39.295-61.974-49.532-5.552-8.433-7.727-15.662-7.274-24.171z"/><path d="m99.61 200.768c1.672 1.105 3.593 1.657 5.514 1.657s3.842-.552 5.514-1.657c7.307-4.829 44.198-29.587 52.914-42.853 3.754-5.715 8.665-14.791 7.98-27.574-1.135-21.248-18.315-37.892-39.112-37.892-11.422 0-20.911 6.287-27.223 12.07-6.218-5.808-15.662-12.07-27.478-12.07-20.795 0-37.975 16.644-39.112 37.893-.683 12.808 4.232 21.875 7.989 27.582 8.665 13.159 45.682 37.998 53.014 42.844zm-41.031-69.359c.56-10.454 9.146-18.959 19.141-18.959 8.592 0 16.66 9.143 19.02 12.628 1.826 2.753 4.894 4.427 8.198 4.472.046 0 .091.001.136.001 3.253 0 6.307-1.583 8.181-4.249 1.908-2.715 10.755-12.853 19.166-12.853 9.996 0 18.582 8.505 19.142 18.959.292 5.472-1.077 9.97-4.726 15.525-4.256 6.478-25.328 22.265-41.713 33.444-16.446-11.213-37.592-27.027-41.822-33.451-3.647-5.538-5.015-10.034-4.723-15.517z"/><path d="m475.125 428.101h-1.668v-29.454c0-58.085-22.619-112.693-63.691-153.765-31.077-31.077-69.904-51.589-112.122-59.732.805-3.311 1.218-6.723 1.218-10.157 0-23.65-19.228-42.891-42.861-42.891s-42.861 19.241-42.861 42.891c0 3.434.413 6.846 1.218 10.157-42.219 8.143-81.045 28.656-112.122 59.732-41.072 41.072-63.691 95.68-63.691 153.765v29.454h-1.668c-20.335 0-36.877 16.553-36.877 36.9v25.941c0 5.523 4.477 10 10 10h492c5.522 0 10-4.477 10-10v-25.941c0-20.347-16.542-36.9-36.875-36.9zm-241.986-253.108c0-12.622 10.256-22.891 22.861-22.891s22.861 10.269 22.861 22.891c0 2.479-.401 4.933-1.174 7.259-7.161-.705-14.396-1.061-21.687-1.061s-14.526.357-21.687 1.061c-.774-2.327-1.174-4.781-1.174-7.259zm-174.596 223.654c0-108.878 88.579-197.457 197.457-197.457s197.457 88.579 197.457 197.457v29.454h-394.914zm433.457 82.295h-472v-15.941c0-9.319 7.57-16.9 16.875-16.9h438.25c9.305 0 16.875 7.581 16.875 16.9z"/></g></svg>