<svg id="Capa_1" enable-background="new 0 0 512 512" height="512" viewBox="0 0 512 512" width="512" xmlns="http://www.w3.org/2000/svg"><g><path d="m504.953 289.164-118.797-36.722v-57.902c0-3.032-1.376-5.901-3.741-7.799l-116.415-93.434v-31.683h13.253c5.522 0 10-4.477 10-10s-4.478-10-10-10h-13.253v-12.999c0-5.523-4.478-10-10-10-5.523 0-10 4.477-10 10v12.999h-13.253c-5.523 0-10 4.477-10 10s4.477 10 10 10h13.253v31.683l-116.415 93.435c-2.365 1.898-3.741 4.767-3.741 7.799v57.901l-118.797 36.722c-4.19 1.295-7.047 5.168-7.047 9.554v184.657c0 5.523 4.477 10 10 10h492c5.522 0 10-4.477 10-10v-184.657c0-4.386-2.857-8.259-7.047-9.554zm-484.953 16.929 105.844-32.718v200h-105.844zm125.844-106.757 110.156-88.41 110.156 88.411v274.038h-46.7v-86.471c0-34.975-28.466-63.429-63.456-63.429s-63.456 28.454-63.456 63.429v86.471h-46.7zm66.7 274.039v-86.471c0-23.947 19.494-43.429 43.456-43.429s43.456 19.482 43.456 43.429v86.471zm279.456 0h-105.844v-200l105.844 32.718z"/><path d="m420.156 449.375h37.844c5.522 0 10-4.477 10-10v-108.204c0-4.385-2.857-8.259-7.047-9.554l-37.844-11.699c-3.032-.938-6.332-.378-8.889 1.506-2.556 1.885-4.064 4.872-4.064 8.048v119.902c0 5.523 4.478 10.001 10 10.001zm10-116.345 17.844 5.516v90.828h-17.844z"/><path d="m97.779 311.424c-2.556-1.885-5.855-2.443-8.889-1.506l-37.844 11.699c-4.19 1.295-7.047 5.168-7.047 9.554v108.204c0 5.523 4.478 10 10 10h37.844c5.522 0 10-4.477 10-10v-119.903c.001-3.176-1.508-6.162-4.064-8.048zm-15.935 117.951h-17.844v-90.828l17.844-5.516z"/><path d="m217.61 291.24h76.779c5.523 0 10-4.477 10-10v-70.114c0-26.671-21.707-48.37-48.39-48.37s-48.39 21.699-48.39 48.37v70.114c.001 5.523 4.479 10 10.001 10zm10-80.114c0-15.644 12.735-28.37 28.39-28.37s28.39 12.727 28.39 28.37v60.114h-56.78z"/></g></svg>