<svg id="Capa_1" enable-background="new 0 0 512 512" height="512" viewBox="0 0 512 512" width="512" xmlns="http://www.w3.org/2000/svg"><g><path d="m343.585 237.6c-.696 13.037 4.313 22.269 8.142 28.08 8.846 13.421 46.71 38.805 54.211 43.757 1.671 1.103 3.59 1.655 5.51 1.655 1.919 0 3.839-.552 5.51-1.655 7.475-4.935 45.209-30.236 54.108-43.768 3.825-5.82 8.831-15.062 8.133-28.07-1.155-21.612-18.641-38.541-39.806-38.541-11.719 0-21.444 6.506-27.873 12.434-6.33-5.953-16.006-12.434-28.13-12.434-21.163-.001-38.649 16.928-39.805 38.542zm59.478-5.52c1.827 2.751 4.894 4.424 8.196 4.469.046.001.091.001.136.001 3.252 0 6.304-1.581 8.179-4.246 1.969-2.798 11.103-13.247 19.819-13.247 10.358 0 19.256 8.797 19.835 19.611.303 5.647-1.109 10.287-4.874 16.013-4.386 6.669-26.095 22.915-42.907 34.367-16.878-11.492-38.665-27.767-43.02-34.375-3.762-5.708-5.173-10.346-4.871-16.006.579-10.813 9.477-19.61 19.834-19.61 8.905 0 17.238 9.427 19.673 13.023z"/><path d="m273.843 230.256c1.671 1.104 3.59 1.655 5.51 1.655 1.919 0 3.839-.552 5.51-1.655 8.161-5.388 80.185-53.327 95.766-77.017 6.838-10.402 14.542-25.03 13.419-45.983-.886-16.552-7.894-32.094-19.733-43.764-12.042-11.869-27.777-18.406-44.308-18.406-22.177 0-40.529 15.346-50.598 26-9.832-10.713-27.896-26-50.914-26-16.529 0-32.264 6.537-44.305 18.406-11.839 11.669-18.847 27.211-19.732 43.766-1.133 21.238 7.121 36.419 13.429 45.992 15.482 23.49 87.764 71.598 95.956 77.006zm-89.414-121.931c1.277-23.842 21.045-43.239 44.066-43.239 23.884 0 42.262 26.986 42.431 27.239 1.823 2.746 4.887 4.409 8.182 4.46.053.001.105.001.156.001 3.237 0 6.284-1.576 8.161-4.221.195-.275 19.766-27.479 42.582-27.479 23.023 0 42.793 19.397 44.069 43.239.642 11.97-2.397 22.117-10.16 33.926-10.42 15.844-60.262 51.256-84.564 67.636-24.385-16.428-74.41-51.933-84.765-67.643-7.76-11.775-10.798-21.92-10.158-33.919z"/><path d="m500.57 323.48c-14.23-14.404-36.588-16.46-53.162-4.89-.092.064-.183.13-.272.197l-58.261 43.655c-.352-3.901-1.27-7.787-2.765-11.53-5.063-12.679-15.964-22.026-29.159-25.003-5.604-1.264-9.956-1.879-13.303-1.879h-102.161c-1.101-1.054-3.145-3.225-6.665-7.6-17.69-21.989-35.36-34.94-54.019-39.592-19.208-4.79-39.613-1.018-62.304 11.532h-41.143v-4.206c0-5.523-4.478-10-10-10h-57.356c-5.523 0-10 4.477-10 10v107.295c0 5.523 4.477 10 10 10h57.356c4.898 0 8.973-3.522 9.833-8.171 11.507 7.877 25.05 18.744 29.862 28.281 10.985 21.771 42.221 45.203 84.844 45.203 54.664 0 166.364.139 167.499.141l1.717.001c.208.001.413.001.62.001 19.766 0 30.585-1.068 54.822-20.922l80.834-63.814c.048-.038.096-.077.144-.116 8.577-7.032 13.831-17.452 14.415-28.587.584-11.155-3.562-22.087-11.376-29.996zm-443.214 57.978h-37.356v-87.295h37.356zm434.617-29.031c-.293 5.584-2.799 10.594-7.059 14.115l-80.826 63.808c-.048.038-.096.077-.144.116-20.092 16.471-25.798 16.476-42.814 16.447l-1.724-.001c-1.122-.001-112.835-.141-167.512-.141-32.298 0-58.619-17.628-66.988-34.213-9.286-18.404-35.936-35.946-47.55-42.957v-61.231h43.771c1.752 0 3.472-.46 4.99-1.334 37.118-21.374 63.229-15.226 93.123 21.932 8.212 10.206 13.246 15.063 19.647 15.063h104.761c1.025 0 3.546.18 8.9 1.389 6.767 1.526 12.369 6.353 14.988 12.911 2.569 6.433 1.888 13.346-1.868 18.968-.55.823-1.143 1.584-1.761 2.261-.625.684-1.158 1.322-1.615 1.899h-160.397c-5.522 0-10 4.477-10 10s4.478 10 10 10h164.877.04.017.016c.08 0 .161-.001.241-.003h.004c.083-.002.166-.005.249-.009.005 0 .009-.001.014-.001.079-.004.158-.009.237-.015.007 0 .013-.001.02-.001.075-.006.15-.012.226-.02.011-.001.023-.002.034-.003.068-.007.135-.015.203-.023.018-.002.036-.004.054-.007.061-.008.122-.016.183-.026.023-.004.047-.007.07-.01.052-.008.105-.017.157-.026.031-.005.063-.011.094-.016.043-.008.085-.016.128-.024.041-.008.083-.016.124-.025.026-.005.052-.011.078-.017.057-.012.114-.025.171-.038l.024-.006c1.211-.288 2.336-.797 3.331-1.48.378-.254.731-.517 1.061-.785l85.436-64.017c8.552-5.879 20.035-4.784 27.362 2.633 3.923 3.97 5.922 9.258 5.627 14.887z"/></g></svg>