<svg id="Capa_1" enable-background="new 0 0 512 512" height="512" viewBox="0 0 512 512" width="512" xmlns="http://www.w3.org/2000/svg"><g><path d="m447.408 353.676c-.092.064-.183.13-.273.198l-58.26 43.655c-.352-3.901-1.27-7.787-2.764-11.53-5.063-12.679-15.965-22.026-29.161-25.004-5.604-1.264-9.955-1.879-13.302-1.879h-102.162c-1.101-1.054-3.143-3.225-6.663-7.6-17.691-21.989-35.361-34.939-54.019-39.592-19.208-4.79-39.613-1.018-62.305 11.532h-41.142v-4.206c0-5.523-4.477-10-10-10h-57.357c-5.523 0-10 4.477-10 10v107.294c0 5.523 4.477 10 10 10h57.357c4.898 0 8.973-3.521 9.832-8.171 11.507 7.877 25.05 18.743 29.861 28.28 10.985 21.771 42.221 45.203 84.844 45.203 54.664 0 166.365.139 167.499.141l1.716.001c.208.001.414.001.62.001 19.766 0 30.585-1.068 54.822-20.922l80.834-63.814c.048-.038.096-.077.144-.116 8.577-7.031 13.832-17.451 14.415-28.587.585-11.153-3.561-22.085-11.375-29.994-14.229-14.401-36.587-16.458-53.161-4.89zm-390.051 62.868h-37.357v-87.294h37.357zm434.615-29.031c-.293 5.584-2.798 10.593-7.057 14.114l-80.827 63.809c-.048.038-.096.077-.144.116-20.091 16.47-25.82 16.481-42.814 16.447l-1.724-.001c-1.122-.001-112.836-.141-167.512-.141-32.298 0-58.62-17.627-66.988-34.212-9.286-18.405-35.935-35.946-47.549-42.957v-61.232h43.77c1.751 0 3.472-.46 4.99-1.334 37.121-21.374 63.231-15.225 93.124 21.931 8.21 10.206 13.244 15.063 19.647 15.063h104.761c1.025 0 3.545.18 8.9 1.389 6.767 1.526 12.37 6.354 14.989 12.912 2.569 6.433 1.888 13.346-1.867 18.967-.552.825-1.145 1.586-1.761 2.261-.625.684-1.158 1.323-1.615 1.9h-160.4c-5.523 0-10 4.477-10 10s4.477 10 10 10h164.832c.784.009 1.572-.075 2.347-.253.006-.001.012-.003.018-.004.067-.016.133-.032.2-.049.015-.004.031-.008.046-.012.054-.014.107-.029.16-.043.028-.008.056-.015.084-.023.037-.01.074-.022.111-.033.044-.013.088-.026.132-.04.015-.005.03-.01.044-.014.924-.295 1.79-.72 2.576-1.254.391-.262.757-.533 1.098-.81l85.438-64.02c8.552-5.881 20.036-4.784 27.362 2.633 3.925 3.973 5.925 9.261 5.629 14.89z"/><path d="m502 190.68h-24.831c-7.629-17.59-22.791-30.444-40.966-35.263 1.598-6.207 2.404-12.606 2.404-19.128 0-31.346-18.921-58.357-45.942-70.209l12.798-18.3c2.827-4.042 2.284-9.542-1.279-12.954l-23.027-22.047c-1.861-1.782-4.338-2.777-6.916-2.777h-24.507c-2.577 0-5.054.995-6.915 2.777l-23.029 22.046c-3.563 3.412-4.106 8.912-1.279 12.954l12.798 18.301c-27.021 11.853-45.943 38.863-45.943 70.209 0 6.52.807 12.92 2.405 19.129-18.17 4.821-33.336 17.675-40.966 35.262h-32.462c-5.523 0-10 4.477-10 10v67.668c0 25.148 20.46 45.607 45.607 45.607h216.441c25.148 0 45.607-20.46 45.607-45.607v-67.668c.002-5.523-4.475-10-9.998-10zm-162.186-147.338 13.935-13.342h16.477l13.935 13.342-11.897 17.012c-3.362-.453-6.792-.687-10.276-.687s-6.914.234-10.276.687zm22.173 36.326c31.22 0 56.62 25.4 56.62 56.621 0 5.85-.874 11.56-2.605 17.041h-108.031c-1.73-5.482-2.605-11.193-2.605-17.041.001-31.221 25.401-56.621 56.621-56.621zm-58.139 93.662h116.278c13.829 0 26.376 6.632 34.151 17.35h-184.578c7.777-10.717 20.327-17.35 34.149-17.35zm188.152 95.018c0 14.12-11.487 25.607-25.607 25.607h-216.442c-14.12 0-25.607-11.487-25.607-25.607v-57.668h267.656z"/></g></svg>