<svg id="Capa_1" enable-background="new 0 0 512 512" height="512" viewBox="0 0 512 512" width="512" xmlns="http://www.w3.org/2000/svg"><g><path d="m389.966 380.646h-.457v-175.734c0-12.566-1.628-25.012-4.842-37.046 4.472-7.847 7.577-17.257 9.091-27.923 2.589-18.255 4.271-45.141-2.421-69.557-5.595-20.42-18.135-34.543-35.356-39.78-1.397-.417-26.492-7.53-57.249 8.692v-29.298c0-5.523-4.478-10-10-10h-65.463c-5.523 0-10 4.477-10 10v29.301c-30.759-16.22-55.863-9.109-57.294-8.681-17.176 5.223-29.716 19.346-35.31 39.765-6.692 24.414-5.011 51.301-2.421 69.559 1.514 10.663 4.619 20.072 9.092 27.918-3.215 12.035-4.843 24.481-4.843 37.049v175.734h-.457c-22.796 0-41.343 18.546-41.343 41.349 0 22.796 18.546 41.343 41.343 41.343h82.779c1.351 27.063 23.793 48.663 51.185 48.663s49.834-21.6 51.187-48.662h82.779c22.797 0 41.343-18.546 41.343-41.349 0-22.797-18.546-41.343-41.343-41.343zm-156.697-360.646h45.463v32.918c-3.024 2.56-6.064 5.377-9.106 8.48-1.224-.112-2.454-.168-3.686-.168h-20.294c-1.103 0-2.206.045-3.303.135-3.031-3.089-6.06-5.896-9.073-8.445v-32.92zm-93.316 55.671c2.151-7.853 7.849-21.662 21.794-25.902.339-.1 34.276-9.674 69.536 29.006 2.445 2.682 6.15 3.829 9.684 2.997 1.524-.359 3.098-.541 4.679-.541h20.294c1.659 0 3.311.201 4.908.596 3.561.885 7.326-.259 9.8-2.976 34.52-37.928 67.706-29.599 69.646-29.07 13.929 4.284 19.607 18.053 21.755 25.891 4.515 16.474 5.192 38.302 1.908 61.461-1.558 10.972-6.714 30.152-23.702 35.318-.332.1-33.669 9.509-68.594-27.983-1.92-2.061-4.583-3.184-7.318-3.184-.921 0-1.852.128-2.763.39-1.828.525-3.725.792-5.64.792h-20.294c-1.837 0-3.661-.246-5.418-.73-3.589-.988-7.428.098-9.967 2.818-34.115 36.555-66.622 28.413-68.551 27.885-16.967-5.218-22.109-24.353-23.665-35.306-3.285-23.16-2.608-44.988 1.908-61.462zm2.538 129.241c0-6.373.486-12.707 1.449-18.952 3.706 2.435 7.744 4.336 12.079 5.654.658.196 6.667 1.906 16.096 1.905 16.167 0 42.381-5.023 68.888-31.32 1.538.177 3.087.267 4.641.267h20.294c1.679 0 3.354-.104 5.012-.311 41.979 41.682 83.242 29.993 85.076 29.445 4.317-1.313 8.339-3.207 12.033-5.633.963 6.242 1.448 12.574 1.448 18.944v175.734h-227.016zm113.509 287.088c-16.36 0-29.825-12.637-31.146-28.662h62.291c-1.32 16.025-14.785 28.662-31.145 28.662zm133.966-48.662h-267.932c-11.769 0-21.343-9.574-21.343-21.349 0-11.769 9.574-21.343 21.343-21.343h267.932c11.769 0 21.343 9.574 21.343 21.349 0 11.769-9.575 21.343-21.343 21.343z"/><path d="m276.678 231.174c-8.854.253-16.165 4.879-21.284 9.478-5.317-4.317-12.872-8.499-22.019-8.238-17.567.503-31.678 14.95-32.125 32.892-.266 10.765 4.055 18.217 7.327 22.887 7.205 10.279 35.153 28.055 43.547 33.259 1.617 1.003 3.444 1.5 5.268 1.5 2.016 0 4.027-.608 5.747-1.816 8.055-5.655 34.853-24.944 41.495-35.705 2.997-4.856 6.88-12.552 5.998-23.26-1.47-17.883-16.358-31.479-33.954-30.997zm10.938 43.754c-2.718 4.401-17.015 16.099-30.569 25.976-14.152-9.113-29.145-19.985-32.091-24.189-2.731-3.897-3.806-7.059-3.711-10.913.179-7.191 5.877-13.2 12.703-13.395.073-.002.146-.003.22-.003 5.771 0 11.742 6.439 13.365 8.68 1.905 2.698 5.02 4.262 8.32 4.232 3.302-.05 6.367-1.727 8.189-4.481 1.963-2.966 8.014-9.52 13.208-9.668 6.796-.212 12.86 5.477 13.45 12.647.316 3.833-.578 7.053-3.084 11.114z"/></g></svg>