<svg id="Capa_1" enable-background="new 0 0 512 512" height="512" viewBox="0 0 512 512" width="512" xmlns="http://www.w3.org/2000/svg"><path d="m502 196.69h-64.989c-5.776-14.955-11.983-22.377-12.467-22.942-1.401-1.635-3.292-2.774-5.393-3.249-1.344-.303-2.711-.564-4.098-.785-.002-.008-.003-.016-.005-.025-.273-1.301-.554-2.636-.841-4.147-.081-.425-.189-.845-.324-1.256-5.866-17.844-11.533-35.183-11.534-35.186-1.344-4.112-5.179-6.894-9.505-6.894-28.734 0-66.611 35.168-100.615 69.733h-72.458c-34.004-34.566-71.881-69.733-100.615-69.733-4.326 0-8.161 2.782-9.505 6.894 0 0-5.668 17.34-11.534 35.186-.135.411-.243.831-.324 1.256-.287 1.512-.567 2.846-.841 4.147-.002.008-.003.016-.005.025-1.387.221-2.754.481-4.098.785-2.101.474-3.991 1.613-5.393 3.249-.484.565-6.691 7.987-12.467 22.942h-64.989c-5.523 0-10 4.477-10 10v98.619c0 5.523 4.477 10 10 10h64.989c5.777 14.955 11.983 22.377 12.467 22.942 1.401 1.635 3.292 2.774 5.393 3.249 1.344.303 2.712.564 4.099.785.002.008.003.015.005.023.272 1.302.554 2.637.841 4.149.081.424.188.843.324 1.254 5.866 17.857 11.533 35.187 11.534 35.189 1.345 4.111 5.18 6.892 9.505 6.892 29.122 0 68.845-36.536 103.838-70.874h66.011c34.993 34.337 74.716 70.874 103.838 70.874 4.325 0 8.16-2.781 9.505-6.892.001-.003 5.668-17.332 11.534-35.189.136-.411.243-.83.324-1.254.287-1.513.568-2.848.841-4.149.001-.008.003-.015.005-.023 1.387-.221 2.755-.481 4.099-.785 2.101-.474 3.991-1.613 5.393-3.249.484-.565 6.69-7.987 12.467-22.942h64.988c5.522 0 10-4.477 10-10v-98.619c0-5.523-4.478-10-10-10zm-116.038-53.357c2.094 6.397 5.201 15.879 8.415 25.66-16.177 1.073-32.842 5.358-45.884 9.564-7.818 2.521-15.608 5.429-23.03 8.561 7.258-6.948 15.068-14.071 22.931-20.542 17.947-14.767 29.834-20.98 37.568-23.243zm-259.924 0c7.733 2.264 19.621 8.476 37.567 23.243 7.863 6.471 15.674 13.594 22.931 20.542-7.422-3.132-15.212-6.04-23.03-8.561-13.042-4.206-29.706-8.492-45.883-9.565 3.214-9.78 6.322-19.263 8.415-25.659zm-106.038 151.977v-78.62h49.005c-2.42 10.906-4.081 23.976-4.081 39.308 0 15.334 1.661 28.404 4.081 39.311h-49.005zm64.924-39.311c0-38.047 11.396-59.599 15.911-66.644 29.779-4.267 82.915 15.058 107.874 31.709v12.07l-21.224-6.215c-5.302-1.55-10.855 1.486-12.407 6.787-1.553 5.3 1.486 10.855 6.786 12.407l26.845 7.861v4.052l-26.845 7.861c-5.3 1.552-8.339 7.107-6.786 12.407 1.277 4.363 5.266 7.192 9.592 7.192.931 0 1.877-.131 2.815-.405l21.224-6.215v12.07c-24.957 16.649-78.085 35.972-107.866 31.71-4.558-7.111-15.919-28.656-15.919-66.647zm32.699 87.008c16.178-1.073 32.842-5.357 45.884-9.564 8.702-2.807 17.37-6.092 25.535-9.633-19.775 18.394-45.314 39.917-62.987 44.91-2.094-6.396-5.209-15.902-8.432-25.713zm165.668-44.089h-54.582v-86.977h54.582zm102.654 69.803c-17.673-4.993-43.212-26.517-62.987-44.91 8.164 3.541 16.832 6.826 25.535 9.633 13.043 4.207 29.706 8.491 45.884 9.564-3.223 9.811-6.338 19.316-8.432 25.713zm25.22-46.075c-29.784 4.268-82.916-15.058-107.874-31.709v-12.07l21.224 6.215c.939.274 1.885.405 2.816.405 4.326 0 8.314-2.83 9.592-7.192 1.553-5.3-1.486-10.855-6.786-12.407l-26.845-7.861v-4.052l26.845-7.861c5.3-1.552 8.339-7.107 6.786-12.407-1.552-5.301-7.107-8.338-12.407-6.787l-21.224 6.215v-12.07c24.955-16.65 78.078-35.973 107.866-31.71 4.558 7.111 15.919 28.656 15.919 66.645-.001 38.047-11.397 59.601-15.912 66.646zm80.835-27.336h-49.005c2.42-10.907 4.081-23.977 4.081-39.311 0-15.332-1.661-28.402-4.081-39.308h49.005z"/></svg>