<svg id="Capa_1" enable-background="new 0 0 512 512" height="512" viewBox="0 0 512 512" width="512" xmlns="http://www.w3.org/2000/svg"><g><path d="m250.561 281.963c1.671 1.104 3.591 1.655 5.511 1.655s3.84-.552 5.511-1.655c5.888-3.889 57.851-38.489 69.307-55.913 4.729-7.198 10.919-18.617 10.061-34.613-1.416-26.452-22.785-47.172-48.648-47.172-15.407 0-28.289 9.624-36.163 17.374-7.727-7.789-20.479-17.374-36.443-17.374-25.862 0-47.23 20.72-48.646 47.174-.855 16.033 5.338 27.438 10.07 34.621 11.384 17.28 63.53 52 69.44 55.903zm-59.541-89.458c.834-15.571 13.697-28.24 28.676-28.24 12.884 0 24.576 13.169 27.976 18.215 1.826 2.752 4.894 4.425 8.196 4.47.045.001.091.001.136.001 3.252 0 6.305-1.582 8.179-4.246 3.365-4.784 15.755-18.439 28.12-18.439 14.98 0 27.844 12.669 28.678 28.241.424 7.91-1.611 14.657-6.804 22.559-6.357 9.668-36.942 32.194-58.105 46.522-21.243-14.377-51.937-36.949-58.25-46.531-5.191-7.877-7.225-14.622-6.802-22.552z"/><path d="m408.493 52.108h-97.157c-1.733-29.025-25.89-52.108-55.336-52.108s-53.604 23.083-55.336 52.108h-97.157c-17.8 0-32.281 14.481-32.281 32.281v395.329c0 17.8 14.481 32.281 32.281 32.281h304.986c17.8 0 32.281-14.481 32.281-32.281v-395.328c0-17.8-14.481-32.282-32.281-32.282zm-197.444 20c2.906 0 5.668-1.264 7.567-3.463s2.749-5.115 2.326-7.99c-.251-1.709-.378-3.46-.378-5.207 0-19.546 15.897-35.448 35.436-35.448s35.435 15.902 35.435 35.448c0 1.747-.127 3.498-.378 5.207-.423 2.875.427 5.791 2.326 7.99s4.661 3.463 7.567 3.463h39.103v23.79h-168.108v-23.79zm165.947 43.79v332.311h-241.992v-332.311zm43.778 363.821c0 6.771-5.51 12.281-12.281 12.281h-304.986c-6.771 0-12.281-5.51-12.281-12.281v-395.329c0-6.771 5.51-12.281 12.281-12.281h48.438v23.79h-26.941c-5.522 0-10 4.478-10 10v352.311c0 5.522 4.478 10 10 10h261.992c5.522 0 10-4.478 10-10v-352.312c0-5.522-4.478-10-10-10h-26.941v-23.79h48.439c6.771 0 12.281 5.51 12.281 12.281v395.33z"/><path d="m174.201 337.678h77.227c5.522 0 10-4.478 10-10s-4.478-10-10-10h-77.227c-5.523 0-10 4.478-10 10s4.478 10 10 10z"/><path d="m306.299 317.678c-5.522 0-10 4.478-10 10s4.478 10 10 10h31.5c5.522 0 10-4.478 10-10s-4.478-10-10-10z"/><path d="m174.201 391.737h77.227c5.522 0 10-4.478 10-10s-4.478-10-10-10h-77.227c-5.523 0-10 4.478-10 10s4.478 10 10 10z"/><path d="m337.799 371.737h-31.5c-5.522 0-10 4.478-10 10s4.478 10 10 10h31.5c5.522 0 10-4.478 10-10s-4.478-10-10-10z"/></g></svg>