<svg id="Capa_1" enable-background="new 0 0 512 512" height="512" viewBox="0 0 512 512" width="512" xmlns="http://www.w3.org/2000/svg"><g><path d="m85.372 93.534c-5.523 0-10 4.478-10 10v53.476c0 3.641-2.952 6.603-6.581 6.603h-11.105v-60.079c0-5.522-4.477-10-10-10s-10 4.478-10 10v60.079h-11.105c-3.628 0-6.581-2.962-6.581-6.603v-53.476c0-5.522-4.477-10-10-10s-10 4.478-10 10v53.476c0 14.669 11.924 26.603 26.581 26.603h11.105v49.835h-11.511c-5.523 0-10 4.478-10 10v143.507c0 17.375 14.136 31.511 31.511 31.511s31.511-14.136 31.511-31.511v-143.507c0-5.522-4.477-10-10-10h-11.511v-49.835h11.105c14.657 0 26.581-11.934 26.581-26.603v-53.476c0-5.522-4.477-10-10-10zm-26.175 293.421c0 6.347-5.164 11.511-11.511 11.511s-11.511-5.164-11.511-11.511v-133.507h23.021v133.507z"/><path d="m476.967 93.534h-17.989c-5.523 0-10 4.478-10 10v283.421c0 17.375 14.136 31.511 31.511 31.511s31.511-14.136 31.511-31.511v-258.389c0-19.316-15.716-35.032-35.033-35.032zm-7.989 20h7.989c8.289 0 15.033 6.743 15.033 15.032v104.882h-23.022zm23.022 273.421c0 6.347-5.164 11.511-11.511 11.511s-11.511-5.164-11.511-11.511v-133.507h23.022z"/><path d="m263.221 88.658c-92.273 0-167.341 75.069-167.341 167.342s75.069 167.342 167.341 167.342 167.342-75.07 167.342-167.342-75.07-167.342-167.342-167.342zm0 314.684c-81.244 0-147.341-66.098-147.341-147.342s66.097-147.342 147.341-147.342c81.245 0 147.342 66.098 147.342 147.342s-66.098 147.342-147.342 147.342z"/><path d="m263.221 132.658c-68.011 0-123.341 55.331-123.341 123.342s55.331 123.342 123.341 123.342 123.342-55.331 123.342-123.342-55.332-123.342-123.342-123.342zm0 226.684c-56.982 0-103.341-46.359-103.341-103.342s46.359-103.342 103.341-103.342c56.983 0 103.342 46.359 103.342 103.342s-46.359 103.342-103.342 103.342z"/><path d="m289.148 203.391c-10.775 0-19.75 5.802-25.804 11.253-5.969-5.475-14.908-11.253-26.052-11.253-19.991 0-36.505 15.983-37.597 36.391-.656 12.288 4.057 20.977 7.66 26.446 8.27 12.548 43.44 36.128 50.407 40.727 1.671 1.103 3.59 1.655 5.51 1.655 1.919 0 3.839-.552 5.51-1.654 6.942-4.584 41.993-28.087 50.313-40.738 3.6-5.477 8.309-14.176 7.652-26.438-1.093-20.406-17.608-36.389-37.599-36.389zm13.235 51.839c-3.973 6.041-23.662 20.787-39.112 31.333-15.511-10.582-35.272-25.356-39.215-31.34-3.388-5.142-4.659-9.307-4.389-14.375.515-9.626 8.422-17.457 17.626-17.457 7.912 0 15.406 8.495 17.6 11.728 1.826 2.752 4.894 4.424 8.196 4.469 3.267.029 6.413-1.544 8.314-4.244 1.776-2.524 9.995-11.952 17.746-11.952 9.204 0 17.112 7.831 17.627 17.458.27 5.054-1.003 9.221-4.393 14.38z"/></g></svg>