<svg id="Capa_1" enable-background="new 0 0 512 512" height="512" viewBox="0 0 512 512" width="512" xmlns="http://www.w3.org/2000/svg"><g><path d="m477.406 116.778h-84.528l-105.613-53.543c.692-2.632 1.062-5.394 1.062-8.24 0-17.85-14.501-32.372-32.327-32.372s-32.327 14.523-32.327 32.372c0 2.84.368 5.595 1.057 8.221l-105.609 53.562h-84.527c-19.075 0-34.594 15.52-34.594 34.595v303.409c0 19.075 15.519 34.595 34.594 34.595h442.812c19.075 0 34.594-15.52 34.594-34.595v-303.409c0-19.075-15.519-34.595-34.594-34.595zm-221.406-74.155c6.797 0 12.327 5.55 12.327 12.372s-5.53 12.372-12.327 12.372-12.327-5.55-12.327-12.372 5.53-12.372 12.327-12.372zm-20.37 37.491c5.563 4.533 12.655 7.253 20.37 7.253 7.707 0 14.793-2.715 20.354-7.241l72.295 36.652h-185.31zm256.37 374.668c0 8.048-6.547 14.595-14.594 14.595h-442.812c-8.047 0-14.594-6.547-14.594-14.595v-303.409c0-8.048 6.547-14.595 14.594-14.595h442.812c8.047 0 14.594 6.547 14.594 14.595z"/><path d="m439.291 179.614h-366.582c-5.523 0-10 4.477-10 10v226.927c0 5.523 4.477 10 10 10h366.582c5.523 0 10-4.477 10-10v-226.927c0-5.522-4.477-10-10-10zm-10 226.927h-346.582v-206.927h346.582z"/><path d="m219.217 368.484c13.637 0 26.308-4.218 36.783-11.42 10.475 7.202 23.146 11.42 36.783 11.42 35.928 0 65.158-29.28 65.158-65.27 0-35.989-29.23-65.27-65.158-65.27-13.637 0-26.308 4.218-36.783 11.42-10.475-7.202-23.146-11.42-36.783-11.42-35.928 0-65.158 29.28-65.158 65.27.001 35.99 29.23 65.27 65.158 65.27zm36.783-91.503c5.271 7.406 8.375 16.463 8.375 26.234s-3.104 18.828-8.375 26.234c-5.271-7.406-8.375-16.463-8.375-26.234s3.104-18.828 8.375-26.234zm81.94 26.234c0 24.962-20.258 45.27-45.158 45.27-7.909 0-15.349-2.049-21.821-5.645 8.41-10.994 13.413-24.735 13.413-39.624s-5.003-28.63-13.413-39.624c6.472-3.596 13.912-5.645 21.821-5.645 24.901-.002 45.158 20.306 45.158 45.268zm-118.723-45.27c7.909 0 15.349 2.049 21.821 5.645-8.41 10.994-13.413 24.735-13.413 39.624s5.003 28.63 13.413 39.624c-6.472 3.596-13.912 5.645-21.821 5.645-24.9 0-45.158-20.308-45.158-45.27.001-24.96 20.258-45.268 45.158-45.268z"/></g></svg>