<svg id="Capa_1" enable-background="new 0 0 512 512" height="512" viewBox="0 0 512 512" width="512" xmlns="http://www.w3.org/2000/svg"><g><path d="m344.637 74.601c-61.935 0-112.324 50.612-112.324 112.824s50.388 112.824 112.324 112.824 112.324-50.612 112.324-112.824-50.389-112.824-112.324-112.824zm0 205.648c-50.908 0-92.324-41.641-92.324-92.824s41.416-92.824 92.324-92.824 92.324 41.641 92.324 92.824-41.417 92.824-92.324 92.824z"/><path d="m344.637 19.292c-32.503 0-62.871 9.356-88.577 25.529-26.573-16.72-57.115-25.529-88.696-25.529-92.285 0-167.364 75.424-167.364 168.133 0 39.979 14.208 78.721 40.008 109.09 23.668 27.86 55.743 47.203 91.034 55.067v30.54h-16.71c-5.523 0-10 4.478-10 10v42.693c0 5.522 4.477 10 10 10h16.71v34.044c0 5.522 4.477 10 10 10h52.643c5.523 0 10-4.478 10-10v-34.044h16.71c5.523 0 10-4.478 10-10v-42.693c0-5.522-4.477-10-10-10h-16.71v-30.534c18.581-4.118 36.135-11.339 52.335-21.533 16.036 10.068 33.721 17.387 52.296 21.527v38.474h-30.294c-3.851 0-7.359 2.211-9.021 5.685s-1.181 7.593 1.235 10.591l66.615 82.652c1.898 2.355 4.761 3.725 7.786 3.725s5.888-1.369 7.786-3.725l66.615-82.652c2.416-2.998 2.896-7.117 1.235-10.591-1.662-3.474-5.17-5.685-9.021-5.685h-30.294v-38.474c35.291-7.864 67.366-27.207 91.034-55.067 25.799-30.369 40.008-69.112 40.008-109.09 0-92.709-75.079-168.133-167.363-168.133zm-152.621 314.203c-4.811.814-8.332 4.98-8.332 9.859v48.768c0 5.522 4.477 10 10 10h16.71v22.693h-16.71c-5.523 0-10 4.478-10 10v34.044h-32.643v-34.044c0-5.522-4.477-10-10-10h-16.71v-22.693h16.71c5.523 0 10-4.478 10-10v-48.768c0-4.879-3.521-9.046-8.332-9.859-71.102-12.033-122.709-73.464-122.709-146.07 0-81.681 66.107-148.133 147.363-148.133 25.053 0 49.36 6.297 71.034 18.312-9.525 7.88-18.17 16.796-25.765 26.574-14.188-6.281-29.696-9.576-45.269-9.576-61.936 0-112.324 50.612-112.324 112.824s50.388 112.824 112.324 112.824c15.547 0 31.03-3.284 45.201-9.546 1.526 1.969 3.099 3.907 4.717 5.812 6.433 7.572 13.487 14.515 21.058 20.77-14.423 7.999-29.955 13.439-46.323 16.209zm9.098-232.483c-15.131 25.268-23.841 54.838-23.841 86.413 0 30.601 8.325 60.477 23.8 86.429-10.692 4.248-21.991 6.396-33.71 6.396-50.908 0-92.324-41.641-92.324-92.824s41.416-92.824 92.324-92.824c11.734-.001 23.048 2.151 33.751 6.41zm168.176 232.483c-4.811.814-8.332 4.98-8.332 9.859v56.701c0 5.522 4.477 10 10 10h19.391l-45.712 56.717-45.712-56.717h19.391c5.523 0 10-4.478 10-10v-56.701c0-4.879-3.521-9.046-8.332-9.859-71.103-12.032-122.71-73.463-122.71-146.07 0-81.681 66.107-148.133 147.363-148.133s147.363 66.452 147.363 148.133c0 72.606-51.607 134.037-122.71 146.07z"/></g></svg>