<svg id="Capa_1" enable-background="new 0 0 512 512" height="512" viewBox="0 0 512 512" width="512" xmlns="http://www.w3.org/2000/svg"><g><path d="m502 438.703h-88.747v-86.285c20.124-4.563 35.194-22.593 35.194-44.078v-88.231c0-5.523-4.477-10-10-10h-140.775c-5.523 0-10 4.477-10 10v88.231c0 21.485 15.07 39.515 35.194 44.078v86.285h-70.805v-207.441c0-27.566-8.054-44.52-23.917-67.974l-22.579-33.387c-.869-1.284-1.729-2.611-2.555-3.942-8.799-14.18-8.579-22.318-8.139-38.533.099-3.646.211-7.778.211-12.291v-10.83h.688c5.523 0 10-4.478 10-10v-43.602c0-5.522-4.477-10-10-10h-77.697c-5.523 0-10 4.478-10 10v43.602c0 5.522 4.477 10 10 10h.688v10.83c0 4.513.112 8.644.211 12.291.44 16.215.661 24.354-8.138 38.532-.832 1.341-1.692 2.668-2.556 3.945l-22.579 33.385c-15.863 23.454-23.917 40.406-23.917 67.974v207.441h-51.782c-5.523 0-10 4.478-10 10v24.765c0 20.859 16.97 37.829 37.83 37.829h436.34c20.859 0 37.83-16.97 37.83-37.829v-24.765c0-5.522-4.477-10-10-10zm-98.747-105.169c-13.892 0-25.194-11.302-25.194-25.193v-32.359h50.388v32.359c0 13.891-11.301 25.193-25.194 25.193zm25.194-77.553h-50.387v-25.872h50.388v25.872zm-70.387-25.872v25.872h-50.388v-25.872zm-50.388 78.232v-32.359h50.388v32.359c0 13.892-11.302 25.193-25.194 25.193s-25.194-11.302-25.194-25.193zm35.194 44.077c10.089-2.288 18.908-7.959 25.194-15.755 6.286 7.796 15.105 13.468 25.194 15.755v86.285h-50.388zm-261.085-108.847h150.279v146.102h-150.279zm46.292-222.868h57.697v23.602h-57.697zm-25.808 153.79 22.579-33.384c1.01-1.493 2.014-3.042 2.984-4.605 11.96-19.273 11.597-32.666 11.137-49.621-.1-3.69-.204-7.507-.204-11.748v-10.83h36.321v10.83c0 4.241-.104 8.058-.204 11.748-.46 16.955-.823 30.348 11.138 49.622.965 1.555 1.968 3.103 2.982 4.603l22.579 33.386c12.484 18.459 18.874 30.878 20.214 49.078h-149.74c1.34-18.202 7.729-30.62 20.214-49.079zm-20.484 235.18h150.279v29.03h-150.279zm410.219 63.795c0 9.831-7.999 17.829-17.83 17.829h-436.34c-9.831 0-17.83-7.998-17.83-17.829v-14.765h472z"/><path d="m174.626 278.2c-7.112 0-13.147 3.222-17.605 6.723-4.423-3.514-10.472-6.723-17.806-6.723-15.336 0-28.004 12.233-28.841 27.852-.498 9.326 3.043 15.866 5.75 19.975 5.837 8.857 28.512 24.216 35.322 28.712 1.671 1.103 3.59 1.655 5.51 1.655 1.919 0 3.839-.552 5.51-1.654 6.787-4.481 29.388-19.795 35.261-28.724 2.704-4.114 6.24-10.659 5.742-19.965-.838-15.617-13.506-27.851-28.843-27.851zm6.389 36.828c-2.074 3.153-13.188 11.776-24.061 19.295-10.917-7.541-22.068-16.174-24.13-19.302-1.931-2.931-2.626-5.147-2.478-7.902.263-4.918 4.242-8.919 8.869-8.919 3.667 0 7.928 4.481 9.376 6.591 1.826 2.752 4.876 4.448 8.178 4.493 3.328.047 6.396-1.519 8.296-4.22 2.08-2.878 6.56-6.864 9.561-6.864 4.628 0 8.607 4.001 8.87 8.92.148 2.749-.549 4.967-2.481 7.908z"/></g></svg>