<svg id="Capa_1" enable-background="new 0 0 511.996 511.996" height="512" viewBox="0 0 511.996 511.996" width="512" xmlns="http://www.w3.org/2000/svg"><g><path d="m389.634 252.635c0-75.776-61.491-137.426-137.075-137.426-75.583 0-137.075 61.65-137.075 137.426 0 75.777 61.492 137.427 137.075 137.427 75.584 0 137.075-61.65 137.075-137.427zm-137.075 117.427c-64.556 0-117.075-52.678-117.075-117.427s52.52-117.426 117.075-117.426c64.556 0 117.075 52.677 117.075 117.426s-52.519 117.427-117.075 117.427z"/><path d="m430.275 242.635c-5.522 0-10 4.478-10 10 0 22.716-4.435 44.747-13.18 65.48-13.595 32.23-36.498 59.048-66.234 77.555-4.689 2.918-6.124 9.085-3.206 13.774 1.896 3.045 5.159 4.717 8.5 4.717 1.804 0 3.63-.487 5.274-1.511 33.264-20.702 58.885-50.704 74.094-86.762 9.789-23.208 14.752-47.854 14.752-73.254 0-5.522-4.478-9.999-10-9.999z"/><path d="m252.559 84.428c5.523 0 10-4.478 10-10s-4.477-10-10-10c-67.528 0-130.165 36.639-163.466 95.618-15.865 28.1-24.251 60.116-24.251 92.589 0 5.522 4.477 10 10 10s10-4.478 10-10c0-29.034 7.492-57.65 21.667-82.755 29.76-52.709 85.723-85.452 146.05-85.452z"/><path d="m252.559 197.311c-30.437 0-55.199 24.818-55.199 55.324 0 30.507 24.762 55.325 55.199 55.325s55.199-24.818 55.199-55.325c0-30.506-24.763-55.324-55.199-55.324zm0 90.649c-19.409 0-35.199-15.847-35.199-35.325 0-19.477 15.791-35.324 35.199-35.324 19.409 0 35.199 15.847 35.199 35.324 0 19.478-15.79 35.325-35.199 35.325z"/><path d="m503.337 102.406c4.04-6.162 9.325-15.944 8.59-29.695-1.218-22.823-19.637-40.701-41.932-40.701-12.667 0-23.141 7.257-29.92 13.665-6.708-6.413-17.15-13.665-30.074-13.665-9.957 0-19.141 3.566-26.365 9.546-39.289-24.582-84.448-37.539-131.077-37.539-66.238 0-128.51 25.864-175.344 72.828-46.828 46.957-72.617 109.387-72.617 175.79 0 41.261 10.165 81.675 29.505 117.714-18.878 6.128-32.886 23.732-34.024 45.042-.856 16.092 5.346 27.541 10.086 34.754 11.409 17.359 63.683 52.252 69.605 56.173 1.673 1.108 3.597 1.662 5.521 1.662 1.923 0 3.847-.554 5.521-1.662 3.842-2.544 27.262-18.17 46.307-33.597 35.389 18.682 75.184 28.533 115.439 28.533 66.238 0 128.51-25.864 175.345-72.828 46.827-46.957 72.616-109.388 72.616-175.791 0-42.178-10.652-83.572-30.873-120.228 13.52-9.953 28.414-21.954 33.691-30.001zm-418.046 383.533c-21.3-14.45-52.08-37.143-58.412-46.778-5.211-7.929-7.253-14.72-6.828-22.705.837-15.676 13.744-28.43 28.772-28.43 12.923 0 24.651 13.244 28.061 18.319 1.82 2.749 4.886 4.413 8.183 4.467 3.289.079 6.416-1.531 8.325-4.22 3.668-5.164 15.888-18.566 28.221-18.566 15.03 0 27.938 12.753 28.774 28.431.426 7.966-1.617 14.759-6.83 22.712-6.375 9.722-37.046 32.368-58.266 46.77zm395.229-233.304c0 126.061-102.263 228.619-227.961 228.619-34.462 0-68.551-7.85-99.337-22.794 3.003-3.03 5.438-5.851 7.062-8.327 4.737-7.227 10.935-18.69 10.077-34.745-1.417-26.559-22.829-47.363-48.746-47.363-15.45 0-28.364 9.678-36.255 17.465-6.528-6.599-16.639-14.486-29.247-16.797-20.629-35.05-31.515-75.097-31.515-116.058 0-126.06 102.263-228.618 227.961-228.618 42.296 0 83.272 11.594 119.041 33.607-2.009 4.646-3.243 9.731-3.529 15.089-.734 13.778 4.556 23.551 8.599 29.704 9.397 14.298 49.853 41.493 57.868 46.799 1.674 1.108 3.597 1.662 5.521 1.662 1.923 0 3.847-.554 5.52-1.662 1.521-1.007 4.214-2.805 7.643-5.155 17.885 33.205 27.298 70.539 27.298 108.574zm6.092-161.196c-4.785 7.298-28.436 25.032-46.555 37.388-18.188-12.397-41.923-30.165-46.674-37.394-4.073-6.198-5.67-11.479-5.342-17.655.641-12.003 10.492-21.768 21.96-21.768 9.855 0 18.995 10.355 21.662 14.311 1.818 2.747 4.885 4.408 8.179 4.465 3.312.019 6.416-1.529 8.326-4.212 2.885-4.052 12.431-14.565 21.827-14.565 11.469 0 21.32 9.765 21.961 21.769.333 6.245-1.214 11.363-5.344 17.661z"/></g></svg>