<svg id="Capa_1" enable-background="new 0 0 512 512" height="512" viewBox="0 0 512 512" width="512" xmlns="http://www.w3.org/2000/svg"><path d="m391.331 332.852h-22.831c2.379-1.838 4.662-3.835 6.83-6.002h.001c38.818-38.82 22.915-114.684 22.22-117.894-.831-3.832-3.823-6.824-7.654-7.655-3.21-.695-79.075-16.6-117.893 22.221-2.168 2.167-4.164 4.451-6.002 6.83v-53.517c17.539-11.771 74.835-51.12 88.36-71.686 6.643-10.107 14.129-24.321 13.038-44.688-.862-16.097-7.677-31.211-19.189-42.559-11.716-11.544-27.022-17.902-43.102-17.902-21.398 0-39.122 14.671-48.955 25.009-9.606-10.395-27.06-25.009-49.267-25.009-16.079 0-31.384 6.358-43.097 17.903-11.512 11.347-18.327 26.461-19.189 42.559-1.102 20.645 6.918 35.396 13.047 44.698 13.396 20.325 70.546 59.592 88.352 71.545v53.646c-1.838-2.379-3.835-4.662-6.002-6.83-38.82-38.82-114.683-22.916-117.894-22.221-3.831.831-6.824 3.823-7.654 7.655-.696 3.21-16.599 79.073 22.22 117.894h.001c2.167 2.167 4.45 4.164 6.829 6.002h-22.831c-5.523 0-10 4.478-10 10v50.468c0 5.522 4.477 10 10 10h10.212l27.974 101.342c1.197 4.336 5.142 7.339 9.64 7.339h175.011c4.498 0 8.443-3.003 9.64-7.339l27.974-101.342h10.212c5.523 0 10-4.478 10-10v-50.468c-.001-5.522-4.478-9.999-10.001-9.999zm-105.186-95.188c25.372-25.373 75.174-20.625 92.988-17.946 2.682 17.826 7.424 67.62-17.944 92.989-25.373 25.373-75.176 20.624-92.989 17.945-.905-6.015-2.044-15.669-2.182-26.796.013-1.346.012-2.712-.004-4.097.224-21.103 4.356-46.321 20.131-62.095zm-111.796-143.509c-7.467-11.333-10.391-21.091-9.775-32.626 1.225-22.899 20.207-41.529 42.313-41.529 22.932 0 40.623 25.969 40.786 26.211 1.822 2.745 4.886 4.408 8.181 4.46 3.276.067 6.409-1.532 8.317-4.219.187-.264 19.032-26.452 40.938-26.452 22.108 0 41.091 18.63 42.317 41.53.617 11.508-2.308 21.268-9.777 32.632-10.028 15.249-57.99 49.342-81.553 65.23-23.643-15.935-71.782-50.117-81.747-65.237zm-41.482 125.564c17.824-2.682 67.619-7.425 92.989 17.945 15.768 15.767 19.903 40.97 20.131 62.066-.016 1.405-.017 2.791-.004 4.157-.14 11.116-1.279 20.759-2.182 26.765-17.826 2.682-67.621 7.424-92.989-17.944-25.372-25.374-20.625-75.176-17.945-92.989zm-2.198 133.133h250.663v30.468h-250.663zm205.223 139.148h-159.784l-24.479-88.681h208.742z"/></svg>