<svg id="Capa_1" enable-background="new 0 0 512 512" height="512" viewBox="0 0 512 512" width="512" xmlns="http://www.w3.org/2000/svg"><g><path d="m94.478 413.571h323.044c5.522 0 10-4.477 10-10v-200.975c0-5.523-4.478-10-10-10h-323.044c-5.523 0-10 4.477-10 10v200.975c0 5.523 4.477 10 10 10zm10-200.975h303.044v180.975h-303.044z"/><path d="m281.535 251.117c-10.599 0-19.432 5.67-25.413 11.031-5.899-5.384-14.699-11.031-25.659-11.031-19.769 0-36.1 15.805-37.18 35.983-.648 12.149 4.009 20.735 7.569 26.138 8.161 12.383 42.822 35.622 49.688 40.156 1.671 1.103 3.59 1.655 5.51 1.655 1.919 0 3.839-.552 5.51-1.655 6.842-4.517 41.386-27.681 49.596-40.165 3.558-5.412 8.212-14.008 7.56-26.13-1.08-20.177-17.411-35.982-37.181-35.982zm12.908 51.124c-3.895 5.922-23.202 20.386-38.394 30.76-15.253-10.41-34.631-24.901-38.498-30.768-3.317-5.034-4.562-9.11-4.297-14.066.503-9.402 8.223-17.051 17.208-17.051 7.725 0 15.06 8.318 17.207 11.483 1.818 2.739 4.879 4.393 8.167 4.451 3.287.059 6.406-1.52 8.32-4.193 2.183-3.046 10.058-11.741 17.379-11.741 8.986 0 16.706 7.649 17.21 17.052.265 4.945-.981 9.022-4.302 14.073z"/><path d="m512 104.765c0-19.135-15.567-34.702-34.702-34.702h-21.276v-18.663c0-5.523-4.478-10-10-10h-54.387c-5.522 0-10 4.477-10 10v18.663h-34.165v-18.663c0-5.523-4.478-10-10-10h-54.388c-5.522 0-10 4.477-10 10v18.663h-34.165v-18.663c0-5.523-4.477-10-10-10h-54.387c-5.523 0-10 4.477-10 10v18.663h-34.165v-18.663c0-5.523-4.477-10-10-10h-54.387c-5.523 0-10 4.477-10 10v18.663h-21.276c-19.135 0-34.702 15.567-34.702 34.702v50.108c0 .017.001.033.001.05s-.001.034-.001.05v280.924c0 19.136 15.567 34.703 34.702 34.703h442.596c19.135 0 34.702-15.567 34.702-34.702v-280.924c0-.017-.001-.034-.001-.05 0-.017.001-.033.001-.05zm-110.365-43.365h34.387v37.326h-34.387zm-108.553 0h34.388v37.326h-34.388zm-108.552 0h34.387v37.326h-34.387zm-108.552 0h34.387v37.326h-34.387zm-55.978 43.365c0-8.107 6.595-14.702 14.702-14.702h21.276v18.663c0 5.523 4.477 10 10 10h54.387c5.523 0 10-4.477 10-10v-18.663h34.165v18.663c0 5.523 4.477 10 10 10h54.387c5.523 0 10-4.477 10-10v-18.663h34.165v18.663c0 5.523 4.478 10 10 10h54.388c5.522 0 10-4.477 10-10v-18.663h34.165v18.663c0 5.523 4.478 10 10 10h54.387c5.522 0 10-4.477 10-10v-18.663h21.276c8.106 0 14.702 6.595 14.702 14.702v40.108h-472zm472 331.133c0 8.107-6.596 14.702-14.702 14.702h-442.596c-8.107 0-14.702-6.595-14.702-14.702v-270.924h472z"/></g></svg>