<svg id="Capa_1" enable-background="new 0 0 512 512" height="512" viewBox="0 0 512 512" width="512" xmlns="http://www.w3.org/2000/svg"><g><path d="m352.304 382.545c-7.112 0-13.147 3.222-17.604 6.723-4.424-3.514-10.472-6.723-17.807-6.723-15.336 0-28.004 12.233-28.841 27.852-.497 9.327 3.043 15.866 5.75 19.974 5.838 8.856 28.512 24.216 35.322 28.712 1.671 1.103 3.59 1.655 5.51 1.655 1.919 0 3.839-.552 5.51-1.655 6.787-4.481 29.388-19.795 35.26-28.724 2.704-4.114 6.241-10.66 5.742-19.965-.836-15.615-13.504-27.849-28.842-27.849zm6.388 36.829c-2.074 3.153-13.187 11.777-24.06 19.295-10.917-7.541-22.069-16.175-24.13-19.302-1.93-2.93-2.625-5.146-2.478-7.902.263-4.918 4.242-8.919 8.869-8.919 3.667 0 7.928 4.481 9.376 6.591 1.826 2.752 4.876 4.449 8.178 4.493 3.308.082 6.396-1.519 8.297-4.22 2.08-2.878 6.559-6.865 9.56-6.865 4.628 0 8.607 4.001 8.87 8.92.148 2.749-.549 4.967-2.482 7.909z"/><path d="m413.199 257.042h-68.599v-8.749c24.851-4.981 44.294-28.055 44.294-54.799 0-12.592-7.936-28.89-24.261-49.824-11.313-14.506-22.47-25.771-22.939-26.243-1.878-1.889-4.431-2.952-7.094-2.952s-5.216 1.063-7.094 2.952c-.469.472-11.626 11.737-22.939 26.243-16.326 20.934-24.262 37.231-24.262 49.824 0 26.744 19.443 49.818 44.294 54.799v8.749h-58.599v-82.758c0-5.523-4.477-10-10-10h-68.6v-11.362c28.846-5.079 51.619-31.634 51.619-62.49 0-31.69-48.945-81.863-54.525-87.48-1.877-1.889-4.43-2.952-7.094-2.952s-5.216 1.063-7.094 2.952c-5.58 5.617-54.525 55.79-54.525 87.48 0 30.856 22.773 57.411 51.619 62.49v11.362h-68.599c-5.523 0-10 4.477-10 10v327.716c0 5.523 4.477 10 10 10h314.397c5.523 0 10-4.477 10-10v-234.958c.001-5.523-4.476-10-9.999-10zm-112.894-63.548c0-12.141 18.243-36.86 34.297-54.495 16.053 17.622 34.291 42.331 34.291 54.495 0 15.79-10.401 29.585-24.294 34.174v-15.414c0-5.523-4.477-10-10-10s-10 4.477-10 10v15.414c-13.892-4.589-24.294-18.385-24.294-34.174zm-164.523-103.062c0-15.615 23.217-45.981 41.619-65.952 18.403 19.972 41.619 50.337 41.619 65.952 0 19.93-13.7 37.236-31.619 42.042v-19.349c0-5.523-4.477-10-10-10s-10 4.477-10 10v19.349c-17.919-4.806-31.619-22.113-31.619-42.042zm267.417 221.862c0 5.739-4.431 10.556-9.878 10.737-2.802.1-5.472-.926-7.485-2.873-2.007-1.941-3.113-4.546-3.113-7.334 0-5.523-4.477-10-10-10s-10 4.477-10 10v14.918c0 2.788-1.105 5.393-3.113 7.335-2.012 1.947-4.665 2.968-7.485 2.872-5.447-.181-9.878-4.997-9.878-10.736v-6.009c0-5.523-4.477-10-10-10s-10 4.477-10 10c0 5.632-4.593 10.213-10.238 10.213s-10.238-4.582-10.238-10.213v-11.718c0-5.523-4.477-10-10-10h-25.771v-22.443h137.199zm-294.398-128.01h137.199v75.561c0 5.739-4.432 10.556-9.878 10.737-2.792.094-5.471-.926-7.484-2.873-2.007-1.941-3.113-4.546-3.113-7.334 0-5.523-4.477-10-10-10s-10 4.477-10 10v61.638c0 2.788-1.105 5.392-3.113 7.333-2.013 1.947-4.676 2.981-7.485 2.874-5.447-.182-9.878-4.998-9.878-10.736v-52.729c0-5.523-4.477-10-10-10s-10 4.477-10 10c0 5.632-4.593 10.213-10.238 10.213s-10.238-4.582-10.238-10.213v-11.718c0-5.523-4.477-10-10-10h-25.771v-62.753zm0 82.752h15.771v1.718c0 16.66 13.564 30.213 30.238 30.213 3.592 0 7.039-.629 10.238-1.783v24.299c0 16.405 13.104 30.188 29.211 30.726.349.011.696.017 1.044.017 7.892 0 15.32-2.998 21.013-8.504 5.938-5.743 9.208-13.453 9.208-21.71v-33.188c3.554 1.275 7.364 1.875 11.265 1.746 3.217-.107 6.314-.744 9.211-1.823v203.253h-137.199zm157.199 224.964v-172.515h15.771v1.718c0 16.66 13.564 30.213 30.238 30.213 6.236 0 12.039-1.897 16.858-5.142 5.361 6.835 13.497 11.36 22.591 11.664.35.011.698.017 1.045.017 7.892 0 15.318-2.997 21.011-8.503 2.797-2.705 5.003-5.848 6.553-9.278 4.285 2.022 9.024 3.004 13.921 2.846 3.217-.108 6.314-.744 9.21-1.823v150.803z"/></g></svg>