<svg id="Capa_1" enable-background="new 0 0 512 512" height="512" viewBox="0 0 512 512" width="512" xmlns="http://www.w3.org/2000/svg"><g><path d="m337.643 294.428c-1.364-25.514-21.984-45.499-46.942-45.499-14.843 0-27.043 8.944-34.618 16.374-7.479-7.433-19.625-16.374-34.785-16.374-24.957 0-45.576 19.985-46.941 45.501-.825 15.452 5.14 26.435 9.698 33.354 10.705 16.243 57.276 47.456 66.504 53.548 1.671 1.104 3.59 1.655 5.51 1.655 1.919 0 3.839-.552 5.51-1.655 5.636-3.721 55.376-36.834 66.375-53.559 4.555-6.931 10.516-17.928 9.689-33.345zm-26.402 22.358c-6.018 9.15-34.985 30.491-55.174 44.168-20.265-13.724-49.337-35.109-55.313-44.176-4.904-7.442-6.826-13.808-6.428-21.282.784-14.649 12.883-26.567 26.97-26.567 12.117 0 23.161 12.444 26.374 17.209 1.821 2.743 4.884 4.401 8.175 4.456.056.001.11.001.165.001 3.23 0 6.274-1.573 8.153-4.208 3.461-4.855 14.975-17.457 26.536-17.457 14.088 0 26.188 11.918 26.972 26.568.4 7.456-1.524 13.823-6.43 21.288z"/><path d="m475.678 79.467h-68.578v-32.235c0-5.523-4.478-10-10-10h-282.2c-5.522 0-10 4.477-10 10v32.235h-68.578c-20.028 0-36.322 16.295-36.322 36.323v322.655c0 20.028 16.294 36.323 36.322 36.323h439.355c20.028 0 36.322-16.295 36.322-36.323v-322.655c.001-20.028-16.293-36.323-36.321-36.323zm-350.778-22.235h262.2v22.235h-262.2zm367.1 381.213c0 9-7.322 16.323-16.322 16.323h-140.575c52.087-28.21 87.542-83.365 87.542-146.646 0-91.888-74.757-166.645-166.646-166.645s-166.645 74.757-166.645 166.645c0 63.28 35.454 118.435 87.542 146.646h-140.574c-9 0-16.322-7.322-16.322-16.323v-322.655c0-9 7.322-16.323 16.322-16.323h439.355c9 0 16.322 7.322 16.322 16.323v322.655zm-236 16.323c-80.86 0-146.646-65.785-146.646-146.646 0-80.86 65.785-146.645 146.646-146.645s146.646 65.785 146.646 146.645c0 80.861-65.786 146.646-146.646 146.646z"/><path d="m256 185.477c-67.627 0-122.645 55.018-122.645 122.645s55.018 122.646 122.645 122.646 122.646-55.019 122.646-122.646-55.019-122.645-122.646-122.645zm0 225.291c-56.599 0-102.645-46.046-102.645-102.646 0-56.599 46.047-102.645 102.645-102.645s102.646 46.046 102.646 102.645-46.047 102.646-102.646 102.646z"/><path d="m459.681 116.966h-69.574c-5.522 0-10 4.477-10 10v42.14c0 5.523 4.478 10 10 10h69.574c5.522 0 10-4.477 10-10v-42.14c0-5.523-4.478-10-10-10zm-10 42.14h-49.574v-22.14h49.574z"/></g></svg>