<svg id="Capa_1" enable-background="new 0 0 512 512" height="512" viewBox="0 0 512 512" width="512" xmlns="http://www.w3.org/2000/svg"><g><path d="m368.784 127.648h51.005c5.523 0 10-4.477 10-10v-51.005c0-5.523-4.477-10-10-10h-51.005c-5.523 0-10 4.477-10 10v51.005c0 5.523 4.477 10 10 10zm10-51.005h31.005v31.005h-31.005z"/><path d="m368.784 232.526h51.005c5.523 0 10-4.477 10-10v-51.005c0-5.523-4.477-10-10-10h-51.005c-5.523 0-10 4.477-10 10v51.005c0 5.523 4.477 10 10 10zm10-51.005h31.005v31.005h-31.005z"/><path d="m368.784 337.404h51.005c5.523 0 10-4.477 10-10v-51.005c0-5.523-4.477-10-10-10h-51.005c-5.523 0-10 4.477-10 10v51.005c0 5.523 4.477 10 10 10zm10-51.005h31.005v31.005h-31.005z"/><path d="m92.211 232.526h51.005c5.523 0 10-4.477 10-10v-51.005c0-5.523-4.477-10-10-10h-51.005c-5.523 0-10 4.477-10 10v51.005c0 5.523 4.477 10 10 10zm10-51.005h31.005v31.005h-31.005z"/><path d="m189.262 232.526h51.005c5.523 0 10-4.477 10-10v-51.005c0-5.523-4.477-10-10-10h-51.005c-5.523 0-10 4.477-10 10v51.005c0 5.523 4.477 10 10 10zm10-51.005h31.005v31.005h-31.005z"/><path d="m143.216 337.404c5.523 0 10-4.477 10-10v-51.005c0-5.523-4.477-10-10-10h-51.005c-5.523 0-10 4.477-10 10v51.005c0 5.523 4.477 10 10 10zm-41.005-51.005h31.005v31.005h-31.005z"/><path d="m189.262 337.404h51.005c5.523 0 10-4.477 10-10v-51.005c0-5.523-4.477-10-10-10h-51.005c-5.523 0-10 4.477-10 10v51.005c0 5.523 4.477 10 10 10zm10-51.005h31.005v31.005h-31.005z"/><path d="m484.064 445.557h-8.393v-435.557c0-5.523-4.477-10-10-10h-239.82c-5.523 0-10 4.477-10 10v97.648h-169.522c-5.523 0-10 4.477-10 10v327.908h-8.393c-5.523 0-10 4.477-10 10v46.444c0 5.523 4.477 10 10 10h456.128c5.523 0 10-4.477 10-10v-46.443c0-5.523-4.477-10-10-10zm-248.213-425.557h219.821v425.557h-41.385v-10.79c0-38.084-30.984-69.068-69.068-69.068-19.171 0-36.542 7.851-49.068 20.507v-48.801h26.589c5.523 0 10-4.477 10-10v-51.005c0-5.523-4.477-10-10-10h-26.589v-33.872h26.589c5.523 0 10-4.477 10-10v-51.005c0-5.523-4.477-10-10-10h-26.589v-33.873h26.589c5.523 0 10-4.477 10-10v-51.007c0-5.523-4.477-10-10-10h-51.005c-5.523 0-10 4.477-10 10v41.005h-25.882v-87.648zm45.882 87.648v-31.005h31.005v31.005zm14.416 73.873h16.589v31.005h-16.589zm0 104.878h16.589v31.005h-16.589zm0 148.368c0-27.056 22.012-49.068 49.068-49.068s49.068 22.012 49.068 49.068v10.79h-98.137v-10.79zm-239.82-307.119h219.821v317.908h-51.385v-21.333c0-32.271-26.254-58.525-58.525-58.525-32.27 0-58.525 26.254-58.525 58.525v21.333h-51.386zm148.435 317.909h-77.05v-21.333c0-21.243 17.282-38.525 38.525-38.525s38.525 17.282 38.525 38.525zm269.3 46.443h-436.128v-26.443h436.128z"/></g></svg>