<svg id="Capa_1" enable-background="new 0 0 512.008 512.008" height="512" viewBox="0 0 512.008 512.008" width="512" xmlns="http://www.w3.org/2000/svg"><path d="m511.875 304.698c-1.067-19.999-9.512-38.78-23.778-52.883-12.982-12.833-29.524-20.505-47.122-21.971 10.484-21.797 14.807-43.406 13.539-67.139-1.692-31.702-15.079-61.475-37.696-83.832-22.934-22.671-52.868-35.156-84.29-35.156-48.752 0-88.362 39.793-104.972 59.477-16.086-19.814-54.627-59.477-105.36-59.477-31.419 0-61.352 12.485-84.285 35.156-22.616 22.357-36.003 52.13-37.695 83.834-1.681 31.596 6.358 59.061 26.064 89.056 31.298 47.626 188.7 163.131 195.385 168.024 1.759 1.287 3.832 1.931 5.907 1.931 2.079 0 4.159-.647 5.919-1.94.186-.137 17.624-12.953 40.655-30.587 34.903 33.023 88.573 74.678 91.58 77.007 1.803 1.396 3.963 2.094 6.123 2.094 2.161 0 4.322-.698 6.125-2.095 4.01-3.107 98.436-76.438 117.636-105.716 8.286-12.642 17.621-30.407 16.265-55.783zm-284.307 94.583c-29.309-21.753-158.48-118.796-184.573-158.502-17.212-26.198-24.246-49.949-22.807-77.008 2.945-55.171 48.706-100.054 102.009-100.054 55.355 0 96.438 60.806 96.839 61.41 1.824 2.756 4.893 4.429 8.197 4.477 3.308.043 6.42-1.544 8.323-4.244.434-.616 44.036-61.643 96.972-61.643 53.307 0 99.07 44.884 102.014 100.055 1.261 23.599-4.001 44.84-16.559 66.845-.075.131-.527.92-.952 1.659-19.93 5.999-35.981 20.742-45.137 30.842-11.433-13.025-34.061-33.531-63.204-33.531-19.893 0-38.835 7.895-53.335 22.229-14.266 14.103-22.711 32.884-23.778 52.885-1.055 19.846 3.963 37.052 16.274 55.791 2.666 4.057 6.812 8.985 11.981 14.468-13.958 10.667-25.632 19.394-32.264 24.321zm251.317-49.766c-13.427 20.474-76.889 72.398-107.037 96.09-30.25-23.755-93.945-75.803-107.282-96.097-9.95-15.145-13.843-28.228-13.018-43.744 1.653-30.977 27.287-56.179 57.141-56.179 30.978 0 54.48 34.679 54.704 35.013 1.825 2.759 4.896 4.436 8.203 4.48 3.308.085 6.422-1.548 8.322-4.256 6.876-9.801 30.133-35.237 54.84-35.237 29.856 0 55.492 25.201 57.144 56.179.829 15.481-3.065 28.566-13.017 43.751z"/></svg>