<svg id="Capa_1" enable-background="new 0 0 511.998 511.998" height="512" viewBox="0 0 511.998 511.998" width="512" xmlns="http://www.w3.org/2000/svg"><g><g><g><path d="m379.724 511.998h-247.449c-5.522 0-10-4.477-10-10v-378.52c0-67.933 55.04-123.216 122.743-123.344 61.486-2.813 116.564 38.541 131.066 98.372.723 2.981.037 6.127-1.858 8.538-1.896 2.41-4.794 3.817-7.86 3.817h-58.633c-3.801 0-7.273-2.155-8.961-5.562-10.831-21.864-34.357-33.385-58.557-28.664-20.779 4.049-37.448 20.778-41.481 41.627-3.132 16.167.942 32.553 11.175 44.958 10.178 12.337 25.154 19.413 41.091 19.413h112.894c14.243 0 25.831 11.61 25.831 25.88v293.483c-.001 5.525-4.479 10.002-10.001 10.002zm-237.449-20h227.449v-283.483c0-3.243-2.616-5.88-5.831-5.88h-112.894c-21.929 0-42.528-9.726-56.519-26.686-14.046-17.027-19.653-39.438-15.383-61.485 5.565-28.772 28.589-51.863 57.289-57.456 31.047-6.053 61.314 7.449 77.258 33.856h39.221c-16.324-43.838-59.476-72.996-107.138-70.739-.157.007-.315.011-.473.011-56.783 0-102.98 46.36-102.98 103.344v368.518z"/></g></g><g><path d="m339.021 463.679h-166.043c-5.522 0-10-4.477-10-10v-198.253c0-5.523 4.478-10 10-10h166.043c5.522 0 10 4.477 10 10v198.254c0 5.522-4.478 9.999-10 9.999zm-156.043-20h146.043v-178.253h-146.043z"/></g><g><g><path d="m256.041 405.435c-1.92 0-3.839-.552-5.51-1.655-8.242-5.442-35.669-24.011-42.577-34.492-3.139-4.764-7.243-12.338-6.668-23.089.959-17.921 15.477-31.958 33.052-31.958 9.149 0 16.582 4.397 21.773 8.865 5.249-4.45 12.688-8.865 21.547-8.865 17.576 0 32.095 14.037 33.054 31.957.575 10.727-3.525 18.309-6.66 23.078-6.949 10.567-34.288 29.081-42.501 34.503-1.671 1.105-3.591 1.656-5.51 1.656zm-21.703-71.192c-6.828 0-12.696 5.843-13.081 13.025-.205 3.85.778 7.042 3.397 11.016 2.821 4.28 17.497 15.578 31.386 25.097 13.832-9.485 28.458-20.768 31.301-25.09 2.62-3.987 3.605-7.181 3.4-11.022-.385-7.183-6.254-13.026-13.083-13.026-5.141 0-11.32 6.283-13.507 9.326-1.9 2.701-4.975 4.253-8.301 4.225-3.302-.045-6.354-1.737-8.182-4.489-1.577-2.316-7.489-9.062-13.33-9.062z"/></g></g></g></svg>