<svg id="Capa_1" enable-background="new 0 0 512 512" height="512" viewBox="0 0 512 512" width="512" xmlns="http://www.w3.org/2000/svg"><g><path d="m430.433 271.428c0-24.336-8.446-42.486-23.128-51.793.018-.256.026-.515.026-.774v-78.4c0-39.872-15.884-76.046-44.726-101.858-27.815-24.894-65.674-38.603-106.605-38.603s-78.79 13.709-106.605 38.602c-28.842 25.813-44.726 61.986-44.726 101.858v78.4c0 .259.009.518.026.774-14.682 9.307-23.128 27.457-23.128 51.793 0 32.308 26.265 58.613 58.618 58.792-15.001 13.804-24.412 33.572-24.412 55.492v116.289c0 5.523 4.477 10 10 10h260.452c5.523 0 10-4.477 10-10v-116.289c0-21.92-9.411-41.688-24.412-55.492 32.355-.178 58.62-26.483 58.62-58.791zm-251.062 220.572v-71.323c0-18.313 14.945-33.211 33.315-33.211s33.314 14.898 33.314 33.211c0 5.523 4.477 10 10 10s10-4.477 10-10c0-18.313 14.945-33.211 33.315-33.211s33.314 14.898 33.314 33.211v71.323zm196.855-106.289v106.289h-23.597v-71.323c0-29.341-23.917-53.211-53.314-53.211-17.821 0-33.629 8.773-43.315 22.218-9.686-13.445-25.494-22.218-43.315-22.218-29.398 0-53.314 23.87-53.314 53.211v71.323h-23.597v-106.289c0-30.598 24.963-55.491 55.648-55.491h44.92c5.523 0 10-4.477 10-10v-33.301c0-4.763-3.359-8.864-8.028-9.804-41.233-8.294-71.16-44.788-71.16-86.773v-23.334c29.012-.704 49.139-4.616 64.438-12.419 10.549-5.38 18.696-12.669 24.408-21.807 5.712 9.138 13.859 16.427 24.408 21.807 15.299 7.803 35.426 11.715 64.438 12.419v23.334c0 41.986-29.927 78.48-71.16 86.773-4.669.94-8.028 5.041-8.028 9.804v33.301c0 5.523 4.477 10 10 10h44.921c30.684.001 55.647 24.894 55.647 55.491zm-4.744-75.49h-85.825v-15.433c46.347-13.06 79.188-55.737 79.188-104.445v-76.233c0-5.523-4.477-10-10-10s-10 4.477-10 10v32.89c-57.263-1.494-78.845-16.512-78.845-53.574 0-5.523-4.477-10-10-10s-10 4.477-10 10c0 37.062-21.583 52.08-78.846 53.574v-32.89c0-5.523-4.477-10-10-10s-10 4.477-10 10v76.232c0 48.708 32.841 91.385 79.188 104.445v15.433h-85.825c-21.477 0-38.95-17.402-38.95-38.793 0-14.454 3.745-38.677 28.772-38.792.069 0 .142-.001.211-.001 5.517-.019 9.976-4.501 9.967-10.017s-4.484-9.983-10-9.983c-.061 0-.122 0-.182.001-1.704-.001-3.809-.109-5.667-.287v-71.888c.001-69.799 55.233-120.46 131.332-120.46s131.331 50.661 131.331 120.46v71.89c-1.79.173-3.859.284-5.724.285-5.597-.036-10.115 4.425-10.125 9.983-.009 5.516 4.45 9.998 9.967 10.017.07 0 .142.001.211.001 25.028.115 28.772 24.339 28.772 38.792.001 21.39-17.472 38.793-38.95 38.793z"/><path d="m273.61 234.531c-3.9-3.913-10.232-3.922-14.142-.023-1.912 1.906-5.023 1.906-6.936 0-3.912-3.899-10.243-3.89-14.142.023-3.899 3.911-3.889 10.243.023 14.142 4.849 4.833 11.218 7.25 17.587 7.25s12.738-2.417 17.587-7.25c3.912-3.899 3.922-10.231.023-14.142z"/><path d="m297.728 209.556c5.523 0 10-4.477 10-10v-15.109c0-5.523-4.477-10-10-10s-10 4.477-10 10v15.109c0 5.523 4.478 10 10 10z"/><path d="m214.271 174.447c-5.523 0-10 4.477-10 10v15.109c0 5.523 4.477 10 10 10s10-4.477 10-10v-15.109c0-5.523-4.477-10-10-10z"/></g></svg>